<svg width="1464" height="1421" viewBox="0 0 1464 1421" fill="none" xmlns="http://www.w3.org/2000/svg">
<g id="preloader" clip-path="url(#clip0_7:599)">
<rect width="1464" height="1421" fill="white"/>
<g id="line-cut">
<line id="Line 1" x1="1464" y1="49" x2="0.00012207" y2="49" stroke="black" stroke-width="20"/>
<rect id="Rectangle 5" x="-2" y="-1675" width="1466" height="1714" fill="white"/>
</g>
<g id="spikes">
<path id="Vector 13" d="M629.232 674.58L728.264 762.416L645.77 657.717L629.232 674.58Z" fill="black"/>
<path id="Vector 14" d="M841.378 868.036L744.058 778.305L824.517 884.576L841.378 868.036Z" fill="black"/>
<path id="Vector 15" d="M639.537 878.207L726.137 778.092L622.47 861.879L639.537 878.207Z" fill="black"/>
<path id="Vector 16" d="M817.264 651.97L744.252 762.387L836.288 665.969L817.264 651.97Z" fill="black"/>
<path id="Vector 17" d="M725.533 653.34L736.911 734.245L751.246 654.208L725.533 653.34Z" fill="black"/>
<path id="Vector 18" d="M838.088 745.816L759.088 766.647L840.256 771.452L838.088 745.816Z" fill="black"/>
<path id="Vector 19" d="M747.808 877.792L735.599 797.009L722.087 877.189L747.808 877.792Z" fill="black"/>
<path id="Vector 20" d="M634.446 792.102L713.14 770.142L631.911 766.499L634.446 792.102Z" fill="black"/>
<path id="Vector 21" d="M729.135 739.76L711.723 690.014L701.359 693.537L729.135 739.76Z" fill="black"/>
<path id="Vector 22" d="M744.759 741.158L772.33 696.238L763.052 690.429L744.759 741.158Z" fill="black"/>
<path id="Vector 23" d="M743.163 790.242L763.711 838.777L773.829 834.6L743.163 790.242Z" fill="black"/>
<path id="Vector 24" d="M727.481 789.844L702.831 836.43L712.46 841.635L727.481 789.844Z" fill="black"/>
<path id="Vector 25" d="M712.546 777.431L664.91 799.985L669.505 809.92L712.546 777.431Z" fill="black"/>
<path id="Vector 26" d="M712.291 761.746L664.717 739.059L659.917 748.897L712.291 761.746Z" fill="black"/>
<path id="Vector 27" d="M755.365 761.094L802.223 736.966L797.299 727.189L755.365 761.094Z" fill="black"/>
<path id="Vector 28" d="M756.143 776.762L804.446 797.851L808.915 787.858L756.143 776.762Z" fill="black"/>
</g>
<g id="wolf-4">
<path id="Vector 46" d="M533.5 493L655.61 606.115L814.5 603.5L852.5 569.5L927 504L922 698.5L920.821 708.283L945.935 822.24L813 914.5L801 997L732.5 1045L704.5 1025L665.656 996.5L654.5 919.5L523.5 823.5L552 704L533.5 493Z" fill="white"/>
<path id="Vector 29" d="M813 923L819.5 870L944.5 821.5L813 923Z" fill="#DE8879"/>
<path id="Vector 311" d="M652.5 919L644 869.5L524 821.5L652.5 919Z" fill="#DE8879"/>
<path id="Vector 30" d="M760.5 1025L732 1007L704 1022.5L733.187 1045.5L760.5 1025Z" fill="#DE8879"/>
<path id="Vector 310" d="M903.5 563L852 570L928.5 502.5L924 616.5L903.5 563Z" fill="#58A156"/>
<path id="Vector 7" d="M814.5 870L944.5 819.5" stroke="black" stroke-width="4"/>
<path id="Vector 47" d="M650.5 870L520.5 819.5" stroke="black" stroke-width="4"/>
<path id="Vector 31" d="M560 562.5L544 614.5L534 492.5L617.5 571.5L560 562.5Z" fill="#58A156"/>
</g>
<g id="wolf-3">
<path id="Vector 51" d="M732.22 850.545L645.983 870.813L666.515 996.47L732.22 1045.11L802.031 996.47L818.457 870.813L732.22 850.545Z" stroke="black" stroke-width="4"/>
<path id="Vector 41" d="M533.5 493L651 603.5L552 705L544.5 617L533.5 493Z" stroke="black" stroke-width="4"/>
<path id="Vector 55" d="M922 710L815 603.5L850 571.5L928.5 502.5L924 616L922 710Z" stroke="black" stroke-width="4"/>
</g>
<g id="wolf-2">
<path id="Vector 5" d="M814.563 604H650.302L551.746 705.337L523 822.888L654.409 920.171L646 871L732 850.5L818.5 871L812 924.5L945.972 822.888L921.333 709.39L814.563 604Z" stroke="black" stroke-width="4"/>
</g>
<g id="wolf-1">
<path id="Vector 8" d="M903.677 563L850.543 571.174L813.758 603.872L921.5 710L924.114 616.134L903.677 563Z" stroke="black" stroke-width="3"/>
<path id="Vector 56" d="M651.5 603L552.5 706L544 616L560.5 563L617.5 571L651.5 603Z" stroke="black" stroke-width="3"/>
<path id="Vector 8_2" d="M703 1021.99L732.013 1007L760.5 1023.99L732.013 1043.79L703 1021.99Z" stroke="black" stroke-width="3"/>
</g>
<line id="Line 4" x1="732.5" y1="604" x2="732.5" y2="1007" stroke="black" stroke-width="3"/>
<g id="left-boot">
<mask id="mask0_7:599" style="mask-type:alpha" maskUnits="userSpaceOnUse" x="370" y="500" width="352" height="679">
<path id="box" d="M370 1179H722V500H370V1179Z" fill="#C4C4C4"/>
</mask>
<g mask="url(#mask0_7:599)">
<g id="boots-10">
<g id="darkg-10">
<path id="Vector 46_2" d="M814.065 608.062L685.52 610.263L684.2 623.469L684.64 626.551L693.444 709.753L694.765 739.688L662.629 786.792L653.384 807.042V824.651L757.277 959.799L940.849 980.929L980.029 942.63L973.425 936.467L950.094 903.01L907.832 896.407L888.463 889.803L869.533 878.798L848.843 850.183L818.908 765.221L814.065 739.688V622.149V608.062Z" fill="white"/>
<g id="Vector 6">
<path d="M684.334 611.048C701.906 605.512 752.502 597.183 814.314 608.16C773.154 609.122 689.534 611.048 684.334 611.048Z" fill="#497E48"/>
<path d="M814.314 741.75V619.713L801.316 721.531L814.314 741.75Z" fill="#497E48"/>
<path d="M888.691 889.782C862.695 876.495 831.163 800 818.647 763.413L850.42 876.784L888.691 889.782Z" fill="#497E48"/>
<path d="M952.237 899.892C945.882 899.892 919.742 897.485 907.466 896.281L952.237 910.001L973.178 936.719C975.344 917.222 960.18 899.892 952.237 899.892Z" fill="#497E48"/>
<path d="M691.556 733.807L684.334 624.046L703.109 741.75L661.949 787.965L691.556 733.807Z" fill="#497E48"/>
</g>
<path id="Vector 5_2" d="M674.229 840.679L653.288 806.74L641.012 824.07L605.629 912.168L592.631 1020.48L653.288 1052.26H734.164L789.767 1014.71L813.596 1052.26H913.247L993.401 1020.48L980.403 942.496L859.811 956.938L813.596 948.273L747.884 873.896L674.229 840.679Z" fill="#497E48"/>
</g>
<g id="lightg-10">
<path id="Vector 46_3" d="M721.731 590.981L576.177 593.474L574.682 608.428L575.18 611.917L585.15 706.128L586.645 740.024L550.257 793.361L539.789 816.29V836.229L657.428 989.26L865.29 1013.19L904.669 970.318L895.198 946.391L875.758 924.957L827.905 917.48L805.972 910.003L784.538 897.541L761.11 865.14L727.214 768.936L721.731 740.024V606.933V590.981Z" fill="white"/>
<g id="Vector 6_2">
<path d="M574.841 594.362C594.737 588.094 652.028 578.663 722.019 591.092C675.413 592.182 580.728 594.362 574.841 594.362Z" fill="#58A256"/>
<path d="M722.019 742.358V604.174L707.301 719.464L722.019 742.358Z" fill="#58A256"/>
<path d="M806.238 909.978C776.802 894.933 741.098 808.316 726.925 766.888L762.902 895.26L806.238 909.978Z" fill="#58A256"/>
<path d="M878.191 921.425C870.996 921.425 841.397 918.7 827.497 917.337L878.191 932.872L901.903 963.126C904.356 941.049 887.186 921.425 878.191 921.425Z" fill="#58A256"/>
<path d="M583.017 733.364L574.841 609.08L596.1 742.358L549.493 794.688L583.017 733.364Z" fill="#58A256"/>
</g>
<path id="Vector 5_3" d="M563.395 854.375L539.683 815.945L525.783 835.569L485.718 935.323L471 1057.97L539.683 1093.95H631.261L694.22 1051.43L721.203 1093.95H834.04L924.799 1057.97L910.082 969.664L773.533 986.017L721.203 976.206L646.796 891.987L563.395 854.375Z" fill="#58A256"/>
</g>
</g>
</g>
</g>
<g id="right-boot">
<mask id="mask1_7:599" style="mask-type:alpha" maskUnits="userSpaceOnUse" x="722" y="449" width="352" height="679">
<path id="box_2" d="M722 1128H1074V449H722V1128Z" fill="#C4C4C4"/>
</mask>
<g mask="url(#mask1_7:599)">
<g id="boots-10_2">
<g id="darkg-10_2">
<path id="Vector 46_4" d="M814.065 608.062L685.52 610.263L684.2 623.469L684.64 626.551L693.444 709.753L694.765 739.688L662.629 786.792L653.384 807.042V824.651L757.277 959.799L940.849 980.929L980.029 942.63L973.425 936.467L950.094 903.01L907.832 896.407L888.463 889.803L869.533 878.798L848.843 850.183L818.908 765.221L814.065 739.688V622.149V608.062Z" fill="white"/>
<g id="Vector 6_3">
<path d="M684.334 611.048C701.906 605.512 752.502 597.183 814.314 608.16C773.154 609.122 689.534 611.048 684.334 611.048Z" fill="#497E48"/>
<path d="M814.314 741.75V619.713L801.316 721.531L814.314 741.75Z" fill="#497E48"/>
<path d="M888.691 889.782C862.695 876.495 831.163 800 818.647 763.413L850.42 876.784L888.691 889.782Z" fill="#497E48"/>
<path d="M952.237 899.892C945.882 899.892 919.742 897.485 907.466 896.281L952.237 910.001L973.178 936.719C975.344 917.222 960.18 899.892 952.237 899.892Z" fill="#497E48"/>
<path d="M691.556 733.807L684.334 624.046L703.109 741.75L661.949 787.965L691.556 733.807Z" fill="#497E48"/>
</g>
<path id="Vector 5_4" d="M674.229 840.679L653.288 806.74L641.012 824.07L605.629 912.168L592.631 1020.48L653.288 1052.26H734.164L789.767 1014.71L813.596 1052.26H913.247L993.401 1020.48L980.403 942.496L859.811 956.938L813.596 948.273L747.884 873.896L674.229 840.679Z" fill="#497E48"/>
</g>
<g id="lightg-10_2">
<path id="Vector 46_5" d="M721.731 590.981L576.177 593.474L574.682 608.428L575.18 611.917L585.15 706.128L586.645 740.024L550.257 793.361L539.789 816.29V836.229L657.428 989.26L865.29 1013.19L904.669 970.318L895.198 946.391L875.758 924.957L827.905 917.48L805.972 910.003L784.538 897.541L761.11 865.14L727.214 768.936L721.731 740.024V606.933V590.981Z" fill="white"/>
<g id="Vector 6_4">
<path d="M574.841 594.362C594.737 588.094 652.028 578.663 722.019 591.092C675.413 592.182 580.728 594.362 574.841 594.362Z" fill="#58A256"/>
<path d="M722.019 742.358V604.174L707.301 719.464L722.019 742.358Z" fill="#58A256"/>
<path d="M806.238 909.978C776.802 894.933 741.098 808.316 726.925 766.888L762.902 895.26L806.238 909.978Z" fill="#58A256"/>
<path d="M878.191 921.425C870.996 921.425 841.397 918.7 827.497 917.337L878.191 932.872L901.903 963.126C904.356 941.049 887.186 921.425 878.191 921.425Z" fill="#58A256"/>
<path d="M583.017 733.364L574.841 609.08L596.1 742.358L549.493 794.688L583.017 733.364Z" fill="#58A256"/>
</g>
<path id="Vector 5_5" d="M563.395 854.375L539.683 815.945L525.783 835.569L485.718 935.323L471 1057.97L539.683 1093.95H631.261L694.22 1051.43L721.203 1093.95H834.04L924.799 1057.97L910.082 969.664L773.533 986.017L721.203 976.206L646.796 891.987L563.395 854.375Z" fill="#58A256"/>
</g>
</g>
</g>
</g>
<g id="lines">
<line id="leftline-1" x1="720" y1="-11" x2="720" y2="1424.36" stroke="black" stroke-width="20"/>
<line id="rightline-1" x1="720" y1="-11" x2="720" y2="1424.36" stroke="black" stroke-width="20"/>
</g>
<g id="thud-illustration-5">
<g id="Vector 54">
<path d="M253 1141.5L464.5 1127L317 1200L253 1141.5Z" fill="#D0DECF"/>
<path d="M665.5 1387L754 1200L874.5 1376.5L665.5 1387Z" fill="#D0DECF"/>
</g>
<path id="Vector 55_2" d="M1286 1150L974 1123L1177.5 1243.5L1286 1150Z" fill="#D0DECF"/>
</g>
<g id="thud-illustration-4">
<g id="Vector 53">
<path d="M246 1135.5L457.5 1121L310 1194L246 1135.5Z" fill="#D0DECF"/>
<path d="M601 1386.5L700 1194L785.5 1377L601 1386.5Z" fill="#D0DECF"/>
</g>
</g>
<g id="boots-9">
<g id="darkg-9">
<path id="Vector 46_6" d="M814.065 608.062L685.52 610.263L684.2 623.469L684.64 626.551L693.444 709.753L694.765 739.688L662.629 786.792L653.384 807.042V824.651L757.277 959.799L940.849 980.929L980.029 942.63L973.425 936.467L950.094 903.01L907.832 896.407L888.463 889.803L869.533 878.798L848.843 850.183L818.908 765.221L814.065 739.688V622.149V608.062Z" fill="white"/>
<g id="Vector 6_5">
<path d="M684.334 611.048C701.906 605.512 752.502 597.183 814.314 608.16C773.154 609.122 689.534 611.048 684.334 611.048Z" fill="#497E48"/>
<path d="M814.314 741.75V619.713L801.316 721.531L814.314 741.75Z" fill="#497E48"/>
<path d="M888.691 889.782C862.695 876.495 831.163 800 818.647 763.413L850.42 876.784L888.691 889.782Z" fill="#497E48"/>
<path d="M952.237 899.892C945.882 899.892 919.742 897.485 907.466 896.281L952.237 910.001L973.178 936.719C975.344 917.222 960.18 899.892 952.237 899.892Z" fill="#497E48"/>
<path d="M691.556 733.807L684.334 624.046L703.109 741.75L661.949 787.965L691.556 733.807Z" fill="#497E48"/>
</g>
<path id="Vector 5_6" d="M674.229 840.679L653.288 806.74L641.012 824.07L605.629 912.168L592.631 1020.48L653.288 1052.26H734.164L789.767 1014.71L813.596 1052.26H913.247L993.401 1020.48L980.403 942.496L859.811 956.938L813.596 948.273L747.884 873.896L674.229 840.679Z" fill="#497E48"/>
</g>
<g id="lightg-9">
<path id="Vector 46_7" d="M721.73 590.981L576.177 593.474L574.682 608.428L575.18 611.917L585.149 706.128L586.645 740.024L550.256 793.361L539.789 816.29V836.229L657.428 989.26L865.29 1013.19L904.669 970.318L895.198 946.391L875.758 924.957L827.905 917.48L805.972 910.003L784.538 897.541L761.11 865.14L727.214 768.936L721.73 740.024V606.933V590.981Z" fill="white"/>
<g id="Vector 6_6">
<path d="M574.841 594.362C594.737 588.094 652.028 578.663 722.019 591.092C675.413 592.182 580.728 594.362 574.841 594.362Z" fill="#58A256"/>
<path d="M722.019 742.358V604.174L707.301 719.464L722.019 742.358Z" fill="#58A256"/>
<path d="M806.238 909.978C776.802 894.933 741.098 808.316 726.925 766.888L762.902 895.26L806.238 909.978Z" fill="#58A256"/>
<path d="M878.191 921.425C870.996 921.425 841.397 918.7 827.497 917.337L878.191 932.872L901.903 963.126C904.356 941.049 887.186 921.425 878.191 921.425Z" fill="#58A256"/>
<path d="M583.017 733.364L574.841 609.08L596.1 742.358L549.493 794.688L583.017 733.364Z" fill="#58A256"/>
</g>
<path id="Vector 5_7" d="M563.395 854.375L539.683 815.945L525.783 835.569L485.718 935.323L471 1057.97L539.683 1093.95H631.261L694.22 1051.43L721.203 1093.95H834.04L924.799 1057.97L910.082 969.664L773.533 986.017L721.203 976.206L646.796 891.987L563.395 854.375Z" fill="#58A256"/>
</g>
</g>
<g id="shoes-12">
<g id="back-12">
<path id="Vector 39" d="M691.202 1009.71L663.762 1052.86L699.248 1068.52L827.547 1080.22L937.32 1079.18L952.152 1068.3L950.356 1066.24L938.321 1061.34L898.44 1051.07L890.215 1048.19L874.999 1040.5L811.493 1016.44L787.044 1011.77L771.136 1003.71L768.256 1006.23L755.804 1023.51L752.502 1024.52L729.998 1030.43L716.448 1028.4L712.61 1014.06L705.63 1009.45L691.202 1009.71Z" fill="white"/>
<g id="Vector 11">
<path d="M643.336 1083.4L662.817 1052.39L735.04 1059.59L743.266 1065.54L879.038 1068.93L952.214 1068.16L959.899 1087.44L945.76 1091.35L875.789 1096.11L658.579 1087.83L643.336 1083.4Z" fill="#C07568"/>
<path d="M678.917 1018.88L666.452 1048.37L690.685 1012.8L707.44 1008.98L691.074 1009.55L678.917 1018.88Z" fill="#C07568"/>
<path d="M718.371 1027.5L712.145 1013.61L714.425 1029.72L730.509 1031.52L753.445 1024.39L730.791 1029.16L718.371 1027.5Z" fill="#C07568"/>
<path d="M785.709 1009.59L770.643 1003.68L781.727 1012.11L807.403 1017.24L872.378 1041.08L890.444 1048.3L877.824 1039.51L810.826 1015L785.709 1009.59Z" fill="#C07568"/>
<path d="M938.025 1059.31L898.012 1050.96L934.566 1061.85L950.333 1066.3L938.025 1059.31Z" fill="#C07568"/>
</g>
<path id="Vector 12" d="M774.577 1010.35L768.232 1006.25L755.645 1023.58L774.577 1010.35Z" fill="#C07568"/>
</g>
<g id="front-12">
<path id="Vector 39_2" d="M560.096 1006.84L528.999 1062.8L575.806 1081.77L740.894 1092.97L881.123 1088.41L899.079 1074.06L896.594 1071.49L880.758 1065.58L828.828 1053.62L818.048 1050.18L797.888 1040.8L714.488 1011.91L682.803 1006.65L661.724 996.823L658.275 1000.12L643.951 1022.59L639.824 1023.97L611.601 1032.18L594.092 1029.99L587.863 1011.77L578.515 1006.08L560.096 1006.84Z" fill="white"/>
<g id="Vector 11_2">
<path d="M505.705 1102.44L527.747 1062.23L620.736 1069.31L631.801 1076.68L805.675 1077.02L899.146 1073.88L910.748 1098.31L893.036 1103.72L804.028 1111.86L525.599 1107.66L505.705 1102.44Z" fill="#DE8879"/>
<path d="M545.237 1018.92L532.023 1056.99L559.72 1010.8L580.786 1005.43L559.917 1006.63L545.237 1018.92Z" fill="#DE8879"/>
<path d="M596.467 1028.78L587.227 1011.21L591.628 1031.74L612.354 1033.57L641.016 1023.77L612.498 1030.54L596.467 1028.78Z" fill="#DE8879"/>
<path d="M680.896 1003.91L661.09 996.79L676.038 1007.25L709.333 1013.05L794.592 1041.62L818.351 1050.31L801.408 1039.45L713.502 1010.08L680.896 1003.91Z" fill="#DE8879"/>
<path d="M880.191 1062.99L828.271 1053.49L876.004 1066.33L896.57 1071.57L880.191 1062.99Z" fill="#DE8879"/>
</g>
<path id="Vector 12_2" d="M666.734 1005.21L658.245 1000.16L643.753 1022.67L666.734 1005.21Z" fill="#DE8879"/>
</g>
</g>
<g id="boots-8">
<g id="darkg-8">
<path id="Vector 46_8" d="M761.044 964.28L753.908 964.402L753.835 965.136L753.86 965.307L754.348 969.925L754.422 971.587L752.638 974.202L752.125 975.326V976.304L757.892 983.806L768.083 984.979L770.258 982.853L769.891 982.511L768.596 980.654L766.25 980.287L765.174 979.921L764.124 979.31L762.975 977.721L761.313 973.005L761.044 971.587V965.062V964.28Z" fill="white"/>
<g id="Vector 6_7">
<path d="M753.843 964.446C754.818 964.139 757.627 963.677 761.058 964.286C758.774 964.339 754.132 964.446 753.843 964.446Z" fill="#497E48"/>
<path d="M761.058 971.702V964.927L760.337 970.58L761.058 971.702Z" fill="#497E48"/>
<path d="M765.187 979.92C763.744 979.182 761.994 974.936 761.299 972.905L763.063 979.198L765.187 979.92Z" fill="#497E48"/>
<path d="M768.715 980.481C768.362 980.481 766.911 980.347 766.23 980.28L768.715 981.042L769.877 982.525C769.998 981.443 769.156 980.481 768.715 980.481Z" fill="#497E48"/>
<path d="M754.244 971.261L753.843 965.168L754.885 971.702L752.6 974.267L754.244 971.261Z" fill="#497E48"/>
</g>
<path id="Vector 5_8" d="M753.282 977.194L752.119 975.31L751.438 976.272L749.474 981.163L748.752 987.176L752.119 988.939H756.609L759.696 986.855L761.018 988.939H766.55L771 987.176L770.278 982.846L763.584 983.648L761.018 983.167L757.371 979.038L753.282 977.194Z" fill="#497E48"/>
</g>
<g id="lightg-8">
<path id="Vector 46_9" d="M755.919 963.333L747.839 963.471L747.756 964.301L747.783 964.495L748.337 969.725L748.42 971.606L746.4 974.567L745.819 975.84V976.947L752.349 985.442L763.888 986.77L766.074 984.391L765.548 983.062L764.469 981.873L761.813 981.457L760.595 981.042L759.405 980.351L758.105 978.552L756.223 973.211L755.919 971.606V964.218V963.333Z" fill="white"/>
<g id="Vector 6_8">
<path d="M747.765 963.52C748.869 963.172 752.05 962.648 755.935 963.338C753.348 963.399 748.091 963.52 747.765 963.52Z" fill="#58A256"/>
<path d="M755.935 971.735V964.064L755.118 970.464L755.935 971.735Z" fill="#58A256"/>
<path d="M760.61 981.041C758.976 980.205 756.994 975.397 756.207 973.097L758.204 980.223L760.61 981.041Z" fill="#58A256"/>
<path d="M764.605 981.676C764.205 981.676 762.562 981.525 761.79 981.449L764.605 982.311L765.921 983.991C766.057 982.765 765.104 981.676 764.605 981.676Z" fill="#58A256"/>
<path d="M748.219 971.236L747.765 964.337L748.945 971.735L746.358 974.64L748.219 971.236Z" fill="#58A256"/>
</g>
<path id="Vector 5_9" d="M747.129 977.954L745.813 975.82L745.041 976.91L742.817 982.447L742 989.256L745.813 991.253H750.897L754.392 988.893L755.89 991.253H762.153L767.192 989.256L766.375 984.354L758.795 985.262L755.89 984.717L751.759 980.042L747.129 977.954Z" fill="#58A256"/>
</g>
</g>
<g id="thud-illustration-4_2">
<path id="Vector 44" d="M454.939 917.944L527.539 1010.49L419 933.3L454.939 917.944Z" fill="#D9D1D0"/>
<g id="Vector 45">
<path d="M395.746 1126.02L497.264 1101.4L429.439 1147.11L395.746 1126.02Z" fill="#D9D1D0"/>
<path d="M664.733 1193.66L583.677 1118.5L623.782 1185.56L664.733 1193.66Z" fill="#D9D1D0"/>
</g>
</g>
<g id="shoes-6">
<g id="back-6">
<path id="Vector 39_3" d="M674.066 886.41L642.122 975.414L683.433 1007.72L832.792 1031.86L960.585 1029.71L977.851 1007.26L975.76 1003.03L961.75 992.918L915.322 971.73L905.747 965.781L888.033 949.927L814.103 900.294L785.641 890.65L767.121 874.04L763.768 879.231L749.272 914.887L745.429 916.965L719.231 929.146L703.456 924.96L698.988 895.386L690.862 885.871L674.066 886.41Z" fill="white"/>
<g id="Vector 11_3">
<path d="M618.343 1038.41L641.022 974.444L725.1 989.299L734.677 1001.58L892.736 1008.57L977.924 1006.97L986.87 1046.75L970.411 1054.82L888.953 1064.63L636.088 1047.56L618.343 1038.41Z" fill="#C07568"/>
<path d="M659.764 905.319L645.253 966.161L673.464 892.777L692.97 884.912L673.917 886.075L659.764 905.319Z" fill="#C07568"/>
<path d="M705.695 923.108L698.446 894.463L701.1 927.695L719.825 931.407L746.526 916.682L720.154 926.532L705.695 923.108Z" fill="#C07568"/>
<path d="M784.087 886.164L766.547 873.963L779.451 891.36L809.341 901.946L884.983 951.121L906.014 966.006L891.323 947.876L813.326 897.318L784.087 886.164Z" fill="#C07568"/>
<path d="M961.405 988.718L914.824 971.497L957.379 993.956L975.734 1003.15L961.405 988.718Z" fill="#C07568"/>
</g>
<path id="Vector 12_3" d="M771.127 887.738L763.74 879.282L749.087 915.019L771.127 887.738Z" fill="#C07568"/>
</g>
<g id="front-6">
<path id="Vector 39_4" d="M521.437 880.486L485.236 995.924L539.727 1035.07L731.914 1058.15L895.163 1048.75L916.066 1019.16L913.173 1013.85L894.737 1001.66L834.283 976.992L821.733 969.886L798.265 950.541L701.174 890.944L664.287 880.097L639.748 859.828L635.733 866.638L619.058 912.973L614.253 915.83L581.398 932.764L561.014 928.235L553.763 890.662L542.88 878.923L521.437 880.486Z" fill="white"/>
<g id="Vector 11_4">
<path d="M458.119 1077.69L483.78 994.742L592.032 1009.35L604.914 1024.55L807.329 1025.26L916.145 1018.78L929.651 1069.17L909.031 1080.34L805.412 1097.12L481.279 1088.47L458.119 1077.69Z" fill="#DE8879"/>
<path d="M504.14 905.401L488.758 983.933L521 888.656L545.525 877.586L521.229 880.065L504.14 905.401Z" fill="#DE8879"/>
<path d="M563.78 925.751L553.023 889.51L558.146 931.854L582.275 935.624L615.642 915.411L582.442 929.375L563.78 925.751Z" fill="#DE8879"/>
<path d="M662.067 874.443L639.011 859.759L656.413 881.326L695.173 893.303L794.427 952.226L822.087 970.159L802.363 947.748L700.026 887.18L662.067 874.443Z" fill="#DE8879"/>
<path d="M894.078 996.31L833.636 976.72L889.204 1003.21L913.145 1014.01L894.078 996.31Z" fill="#DE8879"/>
</g>
<path id="Vector 12_4" d="M645.582 877.129L635.699 866.705L618.828 913.151L645.582 877.129Z" fill="#DE8879"/>
</g>
</g>
<g id="thud-illustration-3">
<g id="Vector 40">
<path d="M1121.13 1008L1042.94 1051.89L1152 1044.8L1121.13 1008Z" fill="#D9D1D0"/>
<path d="M804 1087L817.088 1047.5L870.613 1051.38L924.139 1055.26L804 1087Z" fill="#D9D1D0"/>
</g>
<path id="Vector 41_2" d="M978 1155L998 1091L1035 1155H978Z" fill="#D9D1D0"/>
</g>
<g id="shoes-5">
<g id="back-5">
<path id="Vector 39_5" d="M782.383 781.716L716.26 849.316L740.357 895.892L866.076 980.069L983.143 1031.36L1008.19 1018.15L1008.06 1013.43L999.532 998.402L966.153 959.795L959.927 950.398L950.43 928.605L903.902 852.683L882.045 832.057L872.13 809.241L866.92 812.563L838.886 838.937L834.526 839.225L805.635 839.383L793.039 829.005L801.299 800.259L797.876 788.224L782.383 781.716Z" fill="white"/>
<g id="Vector 11_5">
<path d="M668.398 896.675L715.664 847.977L785.908 896.512L789.499 911.662L930.272 983.874L1008.38 1017.92L999.939 1057.8L981.614 1058.28L903.478 1033.26L680.715 912.39L668.398 896.675Z" fill="#C07568"/>
<path d="M761.503 792.946L722.962 842.209L779.183 787.253L800.192 788.23L782.387 781.348L761.503 792.946Z" fill="#C07568"/>
<path d="M795.845 828.255L801.191 799.194L789.758 830.51L805.233 841.686L835.641 839.425L807.563 837.392L795.845 828.255Z" fill="#C07568"/>
<path d="M882.502 827.331L871.641 808.932L876.123 830.124L898.885 852.201L947.159 928.42L960.076 950.714L954.275 928.111L904.435 849.654L882.502 827.331Z" fill="#C07568"/>
<path d="M1000.97 994.44L965.798 959.376L995.126 997.523L1007.98 1013.53L1000.97 994.44Z" fill="#C07568"/>
</g>
<path id="Vector 12_5" d="M870.065 823.362L866.873 812.598L838.662 838.98L870.065 823.362Z" fill="#C07568"/>
</g>
<g id="front-5">
<path id="Vector 39_6" d="M521.438 880.486L485.236 995.924L539.727 1035.07L731.914 1058.15L895.163 1048.75L916.066 1019.16L913.173 1013.85L894.738 1001.66L834.284 976.992L821.734 969.886L798.265 950.541L701.174 890.944L664.288 880.097L639.749 859.828L635.733 866.638L619.059 912.973L614.254 915.83L581.398 932.764L561.015 928.235L553.763 890.662L542.881 878.923L521.438 880.486Z" fill="white"/>
<g id="Vector 11_6">
<path d="M458.119 1077.69L483.78 994.742L592.032 1009.35L604.914 1024.55L807.329 1025.26L916.145 1018.78L929.651 1069.17L909.031 1080.34L805.412 1097.12L481.279 1088.47L458.119 1077.69Z" fill="#DE8879"/>
<path d="M504.14 905.401L488.758 983.933L521 888.656L545.525 877.586L521.229 880.065L504.14 905.401Z" fill="#DE8879"/>
<path d="M563.78 925.751L553.023 889.51L558.146 931.854L582.275 935.624L615.642 915.411L582.442 929.375L563.78 925.751Z" fill="#DE8879"/>
<path d="M662.067 874.443L639.011 859.759L656.413 881.326L695.173 893.303L794.427 952.226L822.087 970.159L802.363 947.748L700.026 887.18L662.067 874.443Z" fill="#DE8879"/>
<path d="M894.078 996.31L833.636 976.72L889.204 1003.21L913.145 1014.01L894.078 996.31Z" fill="#DE8879"/>
</g>
<path id="Vector 12_6" d="M645.582 877.129L635.699 866.705L618.828 913.151L645.582 877.129Z" fill="#DE8879"/>
</g>
</g>
<g id="thud-illustration-2">
<path id="Vector 42" d="M184.14 1002.94L322.747 1087.8L145 1040.14L184.14 1002.94Z" fill="#D9D1D0"/>
<g id="Vector 43">
<path d="M224.5 1210L358.5 1148L277 1230L224.5 1210Z" fill="#D9D1D0"/>
<path d="M616 1230L483 1148L557 1230H616Z" fill="#D9D1D0"/>
</g>
</g>
<g id="shoes-4">
<g id="back-4">
<path id="Vector 39_7" d="M291.7 546.215L219.635 607.442L239.342 656.039L356.779 751.432L468.626 813.284L494.786 802.431L495.085 797.718L487.98 781.971L458.297 740.456L452.962 730.525L445.512 707.951L406.17 628.068L386.305 605.518L378.533 581.886L373.039 584.714L342.695 608.396L338.327 608.281L309.545 605.778L297.958 594.285L308.829 566.421L306.528 554.122L291.7 546.215Z" fill="white"/>
<g id="Vector 11_7">
<path d="M167.616 650.193L219.165 606.053L284.642 660.848L286.824 676.265L420.352 761.129L494.994 802.216L482.917 841.157L464.625 839.948L389.125 807.836L178.434 666.976L167.616 650.193Z" fill="#C07568"/>
<path d="M269.876 555.476L226.963 600.982L288.004 551.434L308.834 554.341L291.738 545.85L269.876 555.476Z" fill="#C07568"/>
<path d="M300.821 593.796L308.82 565.351L294.552 595.481L308.933 608.034L339.42 608.582L311.648 603.973L300.821 593.796Z" fill="#C07568"/>
<path d="M387.195 600.854L378.074 581.533L380.586 603.047L401.219 627.126L442.272 707.465L453.082 730.853L449.386 707.813L406.98 625.101L387.195 600.854Z" fill="#C07568"/>
<path d="M489.775 778.158L457.982 740.006L483.674 780.69L494.999 797.813L489.775 778.158Z" fill="#C07568"/>
</g>
<path id="Vector 12_7" d="M375.176 595.756L372.988 584.744L342.469 608.417L375.176 595.756Z" fill="#C07568"/>
</g>
<g id="front-4">
<path id="Vector 39_8" d="M17.4377 791.486L-18.7637 906.924L35.7269 946.065L227.914 969.151L391.163 959.755L412.066 930.156L409.173 924.853L390.738 912.661L330.284 887.992L317.734 880.886L294.265 861.541L197.174 801.944L160.288 791.097L135.749 770.828L131.733 777.638L115.059 823.973L110.254 826.83L77.398 843.764L57.0146 839.235L49.7633 801.662L38.8807 789.923L17.4377 791.486Z" fill="white"/>
<g id="Vector 11_8">
<path d="M-45.8814 988.689L-20.2205 905.742L88.0321 920.354L100.914 935.548L303.329 936.259L412.144 929.783L425.651 980.166L405.031 991.34L301.412 1008.12L-22.721 999.468L-45.8814 988.689Z" fill="#DE8879"/>
<path d="M0.139867 816.401L-15.2425 894.933L17.0002 799.656L41.5251 788.586L17.2294 791.065L0.139867 816.401Z" fill="#DE8879"/>
<path d="M59.7801 836.751L49.023 800.51L54.1461 842.854L78.2751 846.624L111.642 826.411L78.4418 840.375L59.7801 836.751Z" fill="#DE8879"/>
<path d="M158.067 785.443L135.011 770.759L152.413 792.326L191.173 804.303L290.427 863.226L318.087 881.159L298.363 858.748L196.026 798.18L158.067 785.443Z" fill="#DE8879"/>
<path d="M390.078 907.31L329.635 887.72L385.204 914.214L409.145 925.013L390.078 907.31Z" fill="#DE8879"/>
</g>
<path id="Vector 12_8" d="M141.582 788.129L131.699 777.705L114.828 824.151L141.582 788.129Z" fill="#DE8879"/>
</g>
</g>
<g id="thud illustration">
<g id="Vector 40_2">
<path d="M1002.5 1031L886 1096L1048.5 1085.5L1002.5 1031Z" fill="#D9D1D0"/>
<path d="M530 1148L549.5 1089.5L629.25 1095.25L709 1101L530 1148Z" fill="#D9D1D0"/>
</g>
<path id="Vector 41_3" d="M789 1250L819 1155L874.5 1250H789Z" fill="#D9D1D0"/>
</g>
<g id="shoes-3">
<g id="back-3">
<path id="Vector 39_9" d="M349.922 71.2153L277.858 132.442L297.564 181.039L415.001 276.432L526.848 338.284L553.009 327.431L553.307 322.718L546.202 306.971L516.519 265.456L511.185 255.525L503.734 232.951L464.392 153.068L444.527 130.518L436.755 106.886L431.261 109.714L400.918 133.396L396.55 133.281L367.767 130.778L356.18 119.285L367.051 91.421L364.751 79.1221L349.922 71.2153Z" fill="white"/>
<g id="Vector 11_9">
<path d="M225.839 175.193L277.387 131.053L342.865 185.848L345.046 201.265L478.574 286.129L553.216 327.216L541.139 366.157L522.848 364.948L447.347 332.836L236.657 191.976L225.839 175.193Z" fill="#C07568"/>
<path d="M328.098 80.4757L285.185 125.982L346.227 76.4345L367.056 79.3412L349.96 70.8499L328.098 80.4757Z" fill="#C07568"/>
<path d="M359.044 118.796L367.042 90.3508L352.774 120.481L367.155 133.034L397.642 133.582L369.871 128.973L359.044 118.796Z" fill="#C07568"/>
<path d="M445.417 125.854L436.296 106.533L438.809 128.047L459.441 152.126L500.494 232.465L511.304 255.853L507.608 232.813L465.203 150.101L445.417 125.854Z" fill="#C07568"/>
<path d="M547.997 303.158L516.204 265.006L541.896 305.69L553.222 322.813L547.997 303.158Z" fill="#C07568"/>
</g>
<path id="Vector 12_9" d="M433.398 120.756L431.211 109.744L400.692 133.417L433.398 120.756Z" fill="#C07568"/>
</g>
<g id="front-3">
<path id="Vector 39_10" d="M123.556 360.239L35.1651 442.843L63.2887 503.755L219.138 618.559L365.816 690.837L398.591 675.385L398.688 669.344L388.655 649.65L348.21 598.391L340.792 586.023L329.905 557.624L274.796 457.918L248.045 430.301L236.683 400.571L229.833 404.518L192.488 436.617L186.899 436.735L149.965 435.277L134.461 421.29L146.669 385.024L142.985 369.446L123.556 360.239Z" fill="white"/>
<g id="Vector 11_10">
<path d="M-28.7265 500.624L34.4804 441.097L121.472 507.161L125.193 526.731L300.969 627.106L398.844 675.099L385.765 725.594L362.317 725.155L263.888 688.685L-13.8862 521.417L-28.7265 500.624Z" fill="#DE8879"/>
<path d="M96.2265 373.393L44.1392 434.144L119.15 367.132L145.945 369.587L123.583 359.769L96.2265 373.393Z" fill="#DE8879"/>
<path d="M138.092 420.493L146.593 383.657L130.182 423.026L149.319 438.198L188.314 437.054L152.544 432.843L138.092 420.493Z" fill="#DE8879"/>
<path d="M248.9 424.287L236.075 400.148L240.588 427.49L268.412 457.013L325.736 557.2L340.965 586.435L334.848 557.214L275.652 454.077L248.9 424.287Z" fill="#DE8879"/>
<path d="M390.718 644.669L347.781 597.836L383.075 648.274L398.585 669.47L390.718 644.669Z" fill="#DE8879"/>
</g>
<path id="Vector 12_10" d="M233.232 418.501L229.771 404.56L192.2 436.659L233.232 418.501Z" fill="#DE8879"/>
</g>
</g>
</g>
<defs>
<clipPath id="clip0_7:599">
<rect width="1464" height="1421" fill="white"/>
</clipPath>
</defs>
</svg>
