<svg width="1464" height="1421" viewBox="0 0 1464 1421" fill="none" xmlns="http://www.w3.org/2000/svg">
<g id="preloader" clip-path="url(#clip0_7:599)">
<rect width="1464" height="1421" fill="white"/>
<g id="line-cut">
<line id="Line 1" x1="1464" y1="49" x2="0.00012207" y2="49" stroke="black" stroke-width="20"/>
<rect id="Rectangle 5" x="-2" y="-1675" width="1466" height="1714" fill="white"/>
</g>
<g id="wolf-5">
<g id="colors">
<g id="logo">
<path id="Vector 46" d="M532.046 501L655.61 606.115L812.325 610.045L854.518 574.679L929.862 546.19L915.798 702.389L920.821 708.283L945.935 822.24L816.344 907.708L802.28 991.211L732.963 1040.33L724.926 1033.45L665.656 988.264L655.61 915.567L522 826.17L553.142 708.283L532.046 501Z" fill="white"/>
<g id="Vector 4">
<path d="M533.188 507.646L655.796 607.561L553.622 707.477L533.188 507.646Z" stroke="black" stroke-width="4"/>
<path d="M917.361 707.477L815.187 607.561L933.709 507.646L917.361 707.477Z" stroke="black" stroke-width="4"/>
<path d="M733.448 847.36L647.622 867.343L668.057 991.239L733.448 1039.2L802.926 991.239L819.274 867.343L733.448 847.36Z" stroke="black" stroke-width="4"/>
</g>
<path id="Vector 8" d="M733.449 607.561V1003.23M733.449 1003.23L704.84 1019.21L733.449 1039.2L762.058 1019.21L733.449 1003.23ZM545.449 619.551L561.797 567.595L619.014 575.588L655.797 607.561L553.623 707.477L545.449 619.551ZM851.971 575.588L905.101 567.595L925.536 619.551L917.362 707.477L815.188 607.561L851.971 575.588Z" stroke="black" stroke-width="4"/>
<path id="Vector 5" d="M815.187 607.562H651.709L553.622 707.478L525.014 823.38L655.796 919.3L647.622 867.343L737.535 847.36L819.274 867.343L815.187 923.296L945.97 823.38L921.448 711.475L815.187 607.562Z" stroke="black" stroke-width="4"/>
<path id="Vector 7" d="M819.275 867.343L941.884 823.38" stroke="black" stroke-width="4"/>
<path id="Vector 6" d="M651.709 867.343L525.014 823.38" stroke="black" stroke-width="4"/>
</g>
<g id="Vector 29">
<path d="M656.37 919.299L647.152 865.965L527.318 824.649L656.37 919.299Z" fill="#DE8879"/>
<path d="M814.613 924.558L819.222 865.965L944.433 824.649L814.613 924.558Z" fill="#DE8879"/>
</g>
<path id="Vector 30" d="M761.609 1019.21L733.187 1002.68L703.997 1019.21L733.187 1039.49L761.609 1019.21Z" fill="#DE8879"/>
<g id="Vector 31">
<path d="M562.654 566.99L546.522 619.573L532.695 506.895L616.426 574.502L562.654 566.99Z" fill="#58A156"/>
<path d="M904.489 566.99L856.094 574.502L933.679 506.895L924.461 615.066L904.489 566.99Z" fill="#58A156"/>
</g>
</g>
</g>
<g id="spikes">
<path id="Vector 13" d="M501.468 566.003L726.022 765.169L538.969 527.766L501.468 566.003Z" fill="black"/>
<path id="Vector 14" d="M982.505 1004.66L761.835 801.196L944.273 1042.16L982.505 1004.66Z" fill="black"/>
<path id="Vector 15" d="M524.834 1027.72L721.198 800.713L486.135 990.698L524.834 1027.72Z" fill="black"/>
<path id="Vector 16" d="M927.827 514.735L762.273 765.103L970.964 546.478L927.827 514.735Z" fill="black"/>
<path id="Vector 17" d="M719.829 517.842L745.629 701.291L778.134 519.809L719.829 517.842Z" fill="black"/>
<path id="Vector 18" d="M975.046 727.527L795.914 774.762L979.961 785.658L975.046 727.527Z" fill="black"/>
<path id="Vector 19" d="M770.337 1026.78L742.653 843.607L712.015 1025.41L770.337 1026.78Z" fill="black"/>
<path id="Vector 20" d="M513.291 832.481L691.727 782.686L507.543 774.427L513.291 832.481Z" fill="black"/>
<path id="Vector 21" d="M727.996 713.797L688.516 600.998L665.016 608.988L727.996 713.797Z" fill="black"/>
<path id="Vector 22" d="M763.424 716.966L825.939 615.112L804.902 601.939L763.424 716.966Z" fill="black"/>
<path id="Vector 23" d="M759.805 828.263L806.396 938.316L829.339 928.844L759.805 828.263Z" fill="black"/>
<path id="Vector 24" d="M724.247 827.36L668.353 932.993L690.187 944.797L724.247 827.36Z" fill="black"/>
<path id="Vector 25" d="M690.382 799.215L582.367 850.354L592.787 872.882L690.382 799.215Z" fill="black"/>
<path id="Vector 26" d="M689.802 763.649L581.931 712.208L571.047 734.515L689.802 763.649Z" fill="black"/>
<path id="Vector 27" d="M787.471 762.171L893.722 707.461L882.557 685.293L787.471 762.171Z" fill="black"/>
<path id="Vector 28" d="M789.237 797.698L898.762 845.516L908.897 822.858L789.237 797.698Z" fill="black"/>
</g>
<g id="wolf-4">
<path id="Vector 5_2" d="M814.563 604H650.302L551.746 705.337L523 822.888L654.409 920.171L646.196 867.476L736.539 847.208L818.67 867.476L814.563 924.225L945.972 822.888L921.333 709.39L814.563 604Z" stroke="black" stroke-width="4"/>
<path id="Vector 8_2" d="M732.013 603.872V1008.51M732.013 1008.51L703.402 1024.86L732.013 1045.29L760.624 1024.86L732.013 1008.51ZM544 616.134L560.349 563L617.57 571.174L654.356 603.872L552.174 706.053L544 616.134ZM850.543 571.174L903.677 563L924.114 616.134L915.939 706.053L813.758 603.872L850.543 571.174Z" stroke="black" stroke-width="4"/>
<g id="Vector 4_2">
<path d="M531 506L654.196 607.337L551.533 708.674L531 506Z" stroke="black" stroke-width="4"/>
<path d="M917.013 708.674L814.35 607.337L933.439 506L917.013 708.674Z" stroke="black" stroke-width="4"/>
<path d="M732.22 850.545L645.983 870.813L666.515 996.47L732.22 1045.11L802.03 996.47L818.457 870.813L732.22 850.545Z" stroke="black" stroke-width="4"/>
</g>
<g id="Vector 29_2">
<path d="M651.67 918.996L642.408 864.903L522 823L651.67 918.996Z" fill="#DE8879"/>
<path d="M810.671 924.329L815.302 864.903L941.113 823L810.671 924.329Z" fill="#DE8879"/>
</g>
</g>
<g id="wolf-3">
<path id="Vector 5_3" d="M814.563 604H650.302L551.746 705.337L523 822.888L654.409 920.171L646.196 867.476L736.539 847.208L818.67 867.476L814.563 924.225L945.972 822.888L921.333 709.39L814.563 604Z" stroke="black" stroke-width="4"/>
<path id="Vector 8_3" d="M732.013 603.872V1008.51M732.013 1008.51L703.402 1024.86L732.013 1045.29L760.624 1024.86L732.013 1008.51ZM544 616.134L560.349 563L617.57 571.174L654.356 603.872L552.174 706.053L544 616.134ZM850.543 571.174L903.677 563L924.114 616.134L915.939 706.053L813.758 603.872L850.543 571.174Z" stroke="black" stroke-width="4"/>
<g id="Vector 4_3">
<path d="M531 506L654.196 607.337L551.533 708.674L531 506Z" stroke="black" stroke-width="4"/>
<path d="M917.013 708.674L814.35 607.337L933.439 506L917.013 708.674Z" stroke="black" stroke-width="4"/>
<path d="M732.22 850.545L645.983 870.813L666.515 996.47L732.22 1045.11L802.03 996.47L818.457 870.813L732.22 850.545Z" stroke="black" stroke-width="4"/>
</g>
</g>
<g id="wolf-2">
<path id="Vector 5_4" d="M814.563 604H650.302L551.746 705.337L523 822.888L654.409 920.171L646.196 867.476L736.539 847.208L818.67 867.476L814.563 924.225L945.972 822.888L921.333 709.39L814.563 604Z" stroke="black" stroke-width="4"/>
<path id="Vector 8_4" d="M732.013 603.872V1008.51M732.013 1008.51L703.402 1024.86L732.013 1045.29L760.624 1024.86L732.013 1008.51ZM544 616.134L560.349 563L617.57 571.174L654.356 603.872L552.174 706.053L544 616.134ZM850.543 571.174L903.677 563L924.114 616.134L915.939 706.053L813.758 603.872L850.543 571.174Z" stroke="black" stroke-width="4"/>
</g>
<g id="wolf-1">
<path id="Vector 8_5" d="M732.013 603.872V1008.51M732.013 1008.51L703.402 1024.86L732.013 1045.29L760.624 1024.86L732.013 1008.51ZM544 616.134L560.349 563L617.57 571.174L654.356 603.872L552.174 706.053L544 616.134ZM850.543 571.174L903.677 563L924.114 616.134L915.939 706.053L813.758 603.872L850.543 571.174Z" stroke="black" stroke-width="4"/>
</g>
<line id="Line 3" x1="733.5" y1="681" x2="733.5" y2="941" stroke="black" stroke-width="3"/>
<g id="lines">
<line id="leftline-1" x1="741" y1="-11" x2="741" y2="1424.36" stroke="black" stroke-width="20"/>
</g>
<g id="boots-11">
<g id="left mask-1">
<mask id="mask0_7:599" style="mask-type:alpha" maskUnits="userSpaceOnUse" x="410" y="514" width="312" height="635">
<rect id="Rectangle 1" x="410" y="514" width="312" height="635" fill="#C4C4C4"/>
</mask>
<g mask="url(#mask0_7:599)">
<g id="Group 20">
<path id="Vector 46_2" d="M814.065 608.062L685.52 610.263L684.2 623.469L684.64 626.551L693.444 709.753L694.765 739.688L662.629 786.792L653.384 807.042V824.651L757.277 959.799L940.849 980.929L980.029 942.63L973.425 936.467L950.094 903.01L907.832 896.407L888.463 889.803L869.533 878.798L848.843 850.183L818.908 765.221L814.065 739.688V622.149V608.062Z" fill="white"/>
<g id="Group 3">
<g id="Vector 6_2">
<path d="M684.334 611.048C701.906 605.512 752.502 597.183 814.314 608.16C773.154 609.122 689.534 611.048 684.334 611.048Z" fill="#497E48"/>
<path d="M814.314 741.75V619.713L801.316 721.531L814.314 741.75Z" fill="#497E48"/>
<path d="M888.691 889.782C862.695 876.495 831.163 800 818.647 763.413L850.42 876.784L888.691 889.782Z" fill="#497E48"/>
<path d="M952.237 899.892C945.882 899.892 919.742 897.485 907.466 896.281L952.237 910.001L973.178 936.719C975.344 917.222 960.18 899.892 952.237 899.892Z" fill="#497E48"/>
<path d="M691.556 733.807L684.334 624.046L703.109 741.75L661.949 787.965L691.556 733.807Z" fill="#497E48"/>
</g>
<path id="Vector 5_5" d="M674.229 840.679L653.288 806.74L641.012 824.07L605.629 912.168L592.631 1020.48L653.288 1052.26H734.164L789.767 1014.71L813.596 1052.26H913.247L993.401 1020.48L980.403 942.496L859.811 956.938L813.596 948.273L747.884 873.896L674.229 840.679Z" fill="#497E48"/>
</g>
</g>
<g id="Group 21">
<path id="Vector 46_3" d="M721.731 590.981L576.177 593.474L574.682 608.428L575.18 611.917L585.15 706.128L586.645 740.024L550.257 793.361L539.789 816.29V836.229L657.428 989.26L865.29 1013.19L904.669 970.318L895.198 946.391L875.758 924.957L827.905 917.48L805.972 910.003L784.538 897.541L761.11 865.14L727.214 768.936L721.731 740.024V606.933V590.981Z" fill="white"/>
<g id="Group 3_2">
<g id="Vector 6_3">
<path d="M574.841 594.362C594.737 588.094 652.028 578.663 722.019 591.092C675.413 592.182 580.728 594.362 574.841 594.362Z" fill="#58A256"/>
<path d="M722.019 742.358V604.174L707.301 719.464L722.019 742.358Z" fill="#58A256"/>
<path d="M806.238 909.978C776.802 894.933 741.098 808.316 726.925 766.888L762.902 895.26L806.238 909.978Z" fill="#58A256"/>
<path d="M878.191 921.425C870.996 921.425 841.397 918.7 827.497 917.337L878.191 932.872L901.903 963.126C904.356 941.049 887.186 921.425 878.191 921.425Z" fill="#58A256"/>
<path d="M583.017 733.364L574.841 609.08L596.1 742.358L549.493 794.688L583.017 733.364Z" fill="#58A256"/>
</g>
<path id="Vector 5_6" d="M563.395 854.375L539.683 815.945L525.783 835.569L485.718 935.323L471 1057.97L539.683 1093.95H631.261L694.22 1051.43L721.203 1093.95H834.04L924.799 1057.97L910.082 969.664L773.533 986.017L721.203 976.206L646.796 891.987L563.395 854.375Z" fill="#58A256"/>
</g>
</g>
</g>
</g>
<g id="right mask-1">
<mask id="mask1_7:599" style="mask-type:alpha" maskUnits="userSpaceOnUse" x="760" y="563" width="304" height="586">
<rect id="Rectangle 2" x="760" y="563" width="304" height="586" fill="#C4C4C4"/>
</mask>
<g mask="url(#mask1_7:599)">
<g id="Group 22">
<path id="Vector 46_4" d="M854.065 608.062L725.52 610.263L724.2 623.469L724.64 626.551L733.444 709.753L734.765 739.688L702.629 786.792L693.384 807.042V824.651L797.277 959.799L980.849 980.929L1020.03 942.63L1013.43 936.467L990.094 903.01L947.832 896.407L928.463 889.803L909.533 878.798L888.843 850.183L858.908 765.221L854.065 739.688V622.149V608.062Z" fill="white"/>
<g id="Group 3_3">
<g id="Vector 6_4">
<path d="M724.334 611.048C741.906 605.512 792.502 597.183 854.314 608.16C813.154 609.122 729.534 611.048 724.334 611.048Z" fill="#497E48"/>
<path d="M854.314 741.75V619.713L841.316 721.531L854.314 741.75Z" fill="#497E48"/>
<path d="M928.691 889.782C902.695 876.495 871.163 800 858.647 763.413L890.42 876.784L928.691 889.782Z" fill="#497E48"/>
<path d="M992.237 899.892C985.882 899.892 959.742 897.485 947.466 896.281L992.237 910.001L1013.18 936.719C1015.34 917.222 1000.18 899.892 992.237 899.892Z" fill="#497E48"/>
<path d="M731.556 733.807L724.334 624.046L743.109 741.75L701.949 787.965L731.556 733.807Z" fill="#497E48"/>
</g>
<path id="Vector 5_7" d="M714.229 840.679L693.288 806.74L681.012 824.07L645.629 912.168L632.631 1020.48L693.288 1052.26H774.164L829.767 1014.71L853.596 1052.26H953.247L1033.4 1020.48L1020.4 942.496L899.811 956.938L853.596 948.273L787.884 873.896L714.229 840.679Z" fill="#497E48"/>
</g>
</g>
<g id="Group 23">
<path id="Vector 46_5" d="M761.731 590.981L616.177 593.474L614.682 608.428L615.18 611.917L625.15 706.128L626.645 740.024L590.257 793.361L579.789 816.29V836.229L697.428 989.26L905.29 1013.19L944.669 970.318L935.198 946.391L915.758 924.957L867.905 917.48L845.972 910.003L824.538 897.541L801.11 865.14L767.214 768.936L761.731 740.024V606.933V590.981Z" fill="white"/>
<g id="Group 3_4">
<g id="Vector 6_5">
<path d="M614.841 594.362C634.737 588.094 692.028 578.663 762.019 591.092C715.413 592.182 620.728 594.362 614.841 594.362Z" fill="#58A256"/>
<path d="M762.019 742.358V604.174L747.301 719.464L762.019 742.358Z" fill="#58A256"/>
<path d="M846.238 909.978C816.802 894.933 781.098 808.316 766.925 766.888L802.902 895.26L846.238 909.978Z" fill="#58A256"/>
<path d="M918.191 921.425C910.996 921.425 881.397 918.7 867.497 917.337L918.191 932.872L941.903 963.126C944.356 941.049 927.186 921.425 918.191 921.425Z" fill="#58A256"/>
<path d="M623.017 733.364L614.841 609.08L636.1 742.358L589.493 794.688L623.017 733.364Z" fill="#58A256"/>
</g>
<path id="Vector 5_8" d="M603.395 854.375L579.683 815.945L565.783 835.569L525.718 935.323L511 1057.97L579.683 1093.95H671.261L734.22 1051.43L761.203 1093.95H874.04L964.799 1057.97L950.082 969.664L813.533 986.017L761.203 976.206L686.796 891.987L603.395 854.375Z" fill="#58A256"/>
</g>
</g>
</g>
</g>
</g>
<g id="thud-illustration-5">
<g id="Vector 54">
<path d="M253 1141.5L464.5 1127L317 1200L253 1141.5Z" fill="#D0DECF"/>
<path d="M665.5 1387L754 1200L874.5 1376.5L665.5 1387Z" fill="#D0DECF"/>
</g>
<path id="Vector 55" d="M1286 1150L974 1123L1177.5 1243.5L1286 1150Z" fill="#D0DECF"/>
</g>
<g id="thud-illustration-4">
<g id="Vector 53">
<path d="M246 1135.5L457.5 1121L310 1194L246 1135.5Z" fill="#D0DECF"/>
<path d="M601 1386.5L700 1194L785.5 1377L601 1386.5Z" fill="#D0DECF"/>
</g>
</g>
<g id="boots-9">
<g id="darkg-9">
<path id="Vector 46_6" d="M814.065 608.062L685.52 610.263L684.2 623.469L684.64 626.551L693.444 709.753L694.765 739.688L662.629 786.792L653.384 807.042V824.651L757.277 959.799L940.849 980.929L980.029 942.63L973.425 936.467L950.094 903.01L907.832 896.407L888.463 889.803L869.533 878.798L848.843 850.183L818.908 765.221L814.065 739.688V622.149V608.062Z" fill="white"/>
<g id="Vector 6_6">
<path d="M684.334 611.048C701.906 605.512 752.502 597.183 814.314 608.16C773.154 609.122 689.534 611.048 684.334 611.048Z" fill="#497E48"/>
<path d="M814.314 741.75V619.713L801.316 721.531L814.314 741.75Z" fill="#497E48"/>
<path d="M888.691 889.782C862.695 876.495 831.163 800 818.647 763.413L850.42 876.784L888.691 889.782Z" fill="#497E48"/>
<path d="M952.237 899.892C945.882 899.892 919.742 897.485 907.466 896.281L952.237 910.001L973.178 936.719C975.344 917.222 960.18 899.892 952.237 899.892Z" fill="#497E48"/>
<path d="M691.556 733.807L684.334 624.046L703.109 741.75L661.949 787.965L691.556 733.807Z" fill="#497E48"/>
</g>
<path id="Vector 5_9" d="M674.229 840.679L653.288 806.74L641.012 824.07L605.629 912.168L592.631 1020.48L653.288 1052.26H734.164L789.767 1014.71L813.596 1052.26H913.247L993.401 1020.48L980.403 942.496L859.811 956.938L813.596 948.273L747.884 873.896L674.229 840.679Z" fill="#497E48"/>
</g>
<g id="lightg-9">
<path id="Vector 46_7" d="M721.73 590.981L576.177 593.474L574.682 608.428L575.18 611.917L585.149 706.128L586.645 740.024L550.256 793.361L539.789 816.29V836.229L657.428 989.26L865.29 1013.19L904.669 970.318L895.198 946.391L875.758 924.957L827.905 917.48L805.972 910.003L784.538 897.541L761.11 865.14L727.214 768.936L721.73 740.024V606.933V590.981Z" fill="white"/>
<g id="Vector 6_7">
<path d="M574.841 594.362C594.737 588.094 652.028 578.663 722.019 591.092C675.413 592.182 580.728 594.362 574.841 594.362Z" fill="#58A256"/>
<path d="M722.019 742.358V604.174L707.301 719.464L722.019 742.358Z" fill="#58A256"/>
<path d="M806.238 909.978C776.802 894.933 741.098 808.316 726.925 766.888L762.902 895.26L806.238 909.978Z" fill="#58A256"/>
<path d="M878.191 921.425C870.996 921.425 841.397 918.7 827.497 917.337L878.191 932.872L901.903 963.126C904.356 941.049 887.186 921.425 878.191 921.425Z" fill="#58A256"/>
<path d="M583.017 733.364L574.841 609.08L596.1 742.358L549.493 794.688L583.017 733.364Z" fill="#58A256"/>
</g>
<path id="Vector 5_10" d="M563.395 854.375L539.683 815.945L525.783 835.569L485.718 935.323L471 1057.97L539.683 1093.95H631.261L694.22 1051.43L721.203 1093.95H834.04L924.799 1057.97L910.082 969.664L773.533 986.017L721.203 976.206L646.796 891.987L563.395 854.375Z" fill="#58A256"/>
</g>
</g>
<g id="shoes-12">
<g id="back-12">
<path id="Vector 39" d="M691.202 1009.71L663.762 1052.86L699.248 1068.52L827.547 1080.22L937.32 1079.18L952.152 1068.3L950.356 1066.24L938.321 1061.34L898.44 1051.07L890.215 1048.19L874.999 1040.5L811.493 1016.44L787.044 1011.77L771.136 1003.71L768.256 1006.23L755.804 1023.51L752.502 1024.52L729.998 1030.43L716.448 1028.4L712.61 1014.06L705.63 1009.45L691.202 1009.71Z" fill="white"/>
<g id="Vector 11">
<path d="M643.336 1083.4L662.817 1052.39L735.04 1059.59L743.266 1065.54L879.038 1068.93L952.214 1068.16L959.899 1087.44L945.76 1091.35L875.789 1096.11L658.579 1087.83L643.336 1083.4Z" fill="#C07568"/>
<path d="M678.917 1018.88L666.452 1048.37L690.685 1012.8L707.44 1008.98L691.074 1009.55L678.917 1018.88Z" fill="#C07568"/>
<path d="M718.371 1027.5L712.145 1013.61L714.425 1029.72L730.509 1031.52L753.445 1024.39L730.791 1029.16L718.371 1027.5Z" fill="#C07568"/>
<path d="M785.709 1009.59L770.643 1003.68L781.727 1012.11L807.403 1017.24L872.378 1041.08L890.444 1048.3L877.824 1039.51L810.826 1015L785.709 1009.59Z" fill="#C07568"/>
<path d="M938.025 1059.31L898.012 1050.96L934.566 1061.85L950.333 1066.3L938.025 1059.31Z" fill="#C07568"/>
</g>
<path id="Vector 12" d="M774.577 1010.35L768.232 1006.25L755.645 1023.58L774.577 1010.35Z" fill="#C07568"/>
</g>
<g id="front-12">
<path id="Vector 39_2" d="M560.096 1006.84L528.999 1062.8L575.806 1081.77L740.894 1092.97L881.123 1088.41L899.079 1074.06L896.594 1071.49L880.758 1065.58L828.828 1053.62L818.048 1050.18L797.888 1040.8L714.488 1011.91L682.803 1006.65L661.724 996.823L658.275 1000.12L643.951 1022.59L639.824 1023.97L611.601 1032.18L594.092 1029.99L587.863 1011.77L578.515 1006.08L560.096 1006.84Z" fill="white"/>
<g id="Vector 11_2">
<path d="M505.705 1102.44L527.747 1062.23L620.736 1069.31L631.801 1076.68L805.675 1077.02L899.146 1073.88L910.748 1098.31L893.036 1103.72L804.028 1111.86L525.599 1107.66L505.705 1102.44Z" fill="#DE8879"/>
<path d="M545.237 1018.92L532.023 1056.99L559.72 1010.8L580.786 1005.43L559.917 1006.63L545.237 1018.92Z" fill="#DE8879"/>
<path d="M596.467 1028.78L587.227 1011.21L591.628 1031.74L612.354 1033.57L641.016 1023.77L612.498 1030.54L596.467 1028.78Z" fill="#DE8879"/>
<path d="M680.896 1003.91L661.09 996.79L676.038 1007.25L709.333 1013.05L794.592 1041.62L818.351 1050.31L801.408 1039.45L713.502 1010.08L680.896 1003.91Z" fill="#DE8879"/>
<path d="M880.191 1062.99L828.271 1053.49L876.004 1066.33L896.57 1071.57L880.191 1062.99Z" fill="#DE8879"/>
</g>
<path id="Vector 12_2" d="M666.734 1005.21L658.245 1000.16L643.753 1022.67L666.734 1005.21Z" fill="#DE8879"/>
</g>
</g>
<g id="boots-8">
<g id="darkg-8">
<path id="Vector 46_8" d="M761.044 964.28L753.908 964.402L753.835 965.136L753.86 965.307L754.348 969.925L754.422 971.587L752.638 974.202L752.125 975.326V976.304L757.892 983.806L768.083 984.979L770.258 982.853L769.891 982.511L768.596 980.654L766.25 980.287L765.174 979.921L764.124 979.31L762.975 977.721L761.313 973.005L761.044 971.587V965.062V964.28Z" fill="white"/>
<g id="Vector 6_8">
<path d="M753.843 964.446C754.818 964.139 757.627 963.677 761.058 964.286C758.774 964.339 754.132 964.446 753.843 964.446Z" fill="#497E48"/>
<path d="M761.058 971.702V964.927L760.337 970.58L761.058 971.702Z" fill="#497E48"/>
<path d="M765.187 979.92C763.744 979.182 761.994 974.936 761.299 972.905L763.063 979.198L765.187 979.92Z" fill="#497E48"/>
<path d="M768.715 980.481C768.362 980.481 766.911 980.347 766.23 980.28L768.715 981.042L769.877 982.525C769.998 981.443 769.156 980.481 768.715 980.481Z" fill="#497E48"/>
<path d="M754.244 971.261L753.843 965.168L754.885 971.702L752.6 974.267L754.244 971.261Z" fill="#497E48"/>
</g>
<path id="Vector 5_11" d="M753.282 977.194L752.119 975.31L751.438 976.272L749.474 981.163L748.752 987.176L752.119 988.939H756.609L759.696 986.855L761.018 988.939H766.55L771 987.176L770.278 982.846L763.584 983.648L761.018 983.167L757.371 979.038L753.282 977.194Z" fill="#497E48"/>
</g>
<g id="lightg-8">
<path id="Vector 46_9" d="M755.919 963.333L747.839 963.471L747.756 964.301L747.783 964.495L748.337 969.725L748.42 971.606L746.4 974.567L745.819 975.84V976.947L752.349 985.442L763.888 986.77L766.074 984.391L765.548 983.062L764.469 981.873L761.813 981.457L760.595 981.042L759.405 980.351L758.105 978.552L756.223 973.211L755.919 971.606V964.218V963.333Z" fill="white"/>
<g id="Vector 6_9">
<path d="M747.765 963.52C748.869 963.172 752.05 962.648 755.935 963.338C753.348 963.399 748.091 963.52 747.765 963.52Z" fill="#58A256"/>
<path d="M755.935 971.735V964.064L755.118 970.464L755.935 971.735Z" fill="#58A256"/>
<path d="M760.61 981.041C758.976 980.205 756.994 975.397 756.207 973.097L758.204 980.223L760.61 981.041Z" fill="#58A256"/>
<path d="M764.605 981.676C764.205 981.676 762.562 981.525 761.79 981.449L764.605 982.311L765.921 983.991C766.057 982.765 765.104 981.676 764.605 981.676Z" fill="#58A256"/>
<path d="M748.219 971.236L747.765 964.337L748.945 971.735L746.358 974.64L748.219 971.236Z" fill="#58A256"/>
</g>
<path id="Vector 5_12" d="M747.129 977.954L745.813 975.82L745.041 976.91L742.817 982.447L742 989.256L745.813 991.253H750.897L754.392 988.893L755.89 991.253H762.153L767.192 989.256L766.375 984.354L758.795 985.262L755.89 984.717L751.759 980.042L747.129 977.954Z" fill="#58A256"/>
</g>
</g>
<g id="thud-illustration-4_2">
<path id="Vector 44" d="M454.939 917.944L527.539 1010.49L419 933.3L454.939 917.944Z" fill="#D9D1D0"/>
<g id="Vector 45">
<path d="M395.746 1126.02L497.264 1101.4L429.439 1147.11L395.746 1126.02Z" fill="#D9D1D0"/>
<path d="M664.733 1193.66L583.677 1118.5L623.782 1185.56L664.733 1193.66Z" fill="#D9D1D0"/>
</g>
</g>
<g id="shoes-6">
<g id="back-6">
<path id="Vector 39_3" d="M674.066 886.41L642.122 975.414L683.433 1007.72L832.792 1031.86L960.585 1029.71L977.851 1007.26L975.76 1003.03L961.75 992.918L915.322 971.73L905.747 965.781L888.033 949.927L814.103 900.294L785.641 890.65L767.121 874.04L763.768 879.231L749.272 914.887L745.429 916.965L719.231 929.146L703.456 924.96L698.988 895.386L690.862 885.871L674.066 886.41Z" fill="white"/>
<g id="Vector 11_3">
<path d="M618.343 1038.41L641.022 974.444L725.1 989.299L734.677 1001.58L892.736 1008.57L977.924 1006.97L986.87 1046.75L970.411 1054.82L888.953 1064.63L636.088 1047.56L618.343 1038.41Z" fill="#C07568"/>
<path d="M659.764 905.319L645.253 966.161L673.464 892.777L692.97 884.912L673.917 886.075L659.764 905.319Z" fill="#C07568"/>
<path d="M705.695 923.108L698.446 894.463L701.1 927.695L719.825 931.407L746.526 916.682L720.154 926.532L705.695 923.108Z" fill="#C07568"/>
<path d="M784.087 886.164L766.547 873.963L779.451 891.36L809.341 901.946L884.983 951.121L906.014 966.006L891.323 947.876L813.326 897.318L784.087 886.164Z" fill="#C07568"/>
<path d="M961.405 988.718L914.824 971.497L957.379 993.956L975.734 1003.15L961.405 988.718Z" fill="#C07568"/>
</g>
<path id="Vector 12_3" d="M771.127 887.738L763.74 879.282L749.087 915.019L771.127 887.738Z" fill="#C07568"/>
</g>
<g id="front-6">
<path id="Vector 39_4" d="M521.437 880.486L485.236 995.924L539.727 1035.07L731.914 1058.15L895.163 1048.75L916.066 1019.16L913.173 1013.85L894.737 1001.66L834.283 976.992L821.733 969.886L798.265 950.541L701.174 890.944L664.287 880.097L639.748 859.828L635.733 866.638L619.058 912.973L614.253 915.83L581.398 932.764L561.014 928.235L553.763 890.662L542.88 878.923L521.437 880.486Z" fill="white"/>
<g id="Vector 11_4">
<path d="M458.119 1077.69L483.78 994.742L592.032 1009.35L604.914 1024.55L807.329 1025.26L916.145 1018.78L929.651 1069.17L909.031 1080.34L805.412 1097.12L481.279 1088.47L458.119 1077.69Z" fill="#DE8879"/>
<path d="M504.14 905.401L488.758 983.933L521 888.656L545.525 877.586L521.229 880.065L504.14 905.401Z" fill="#DE8879"/>
<path d="M563.78 925.751L553.023 889.51L558.146 931.854L582.275 935.624L615.642 915.411L582.442 929.375L563.78 925.751Z" fill="#DE8879"/>
<path d="M662.067 874.443L639.011 859.759L656.413 881.326L695.173 893.303L794.427 952.226L822.087 970.159L802.363 947.748L700.026 887.18L662.067 874.443Z" fill="#DE8879"/>
<path d="M894.078 996.31L833.636 976.72L889.204 1003.21L913.145 1014.01L894.078 996.31Z" fill="#DE8879"/>
</g>
<path id="Vector 12_4" d="M645.582 877.129L635.699 866.705L618.828 913.151L645.582 877.129Z" fill="#DE8879"/>
</g>
</g>
<g id="thud-illustration-3">
<g id="Vector 40">
<path d="M1121.13 1008L1042.94 1051.89L1152 1044.8L1121.13 1008Z" fill="#D9D1D0"/>
<path d="M804 1087L817.088 1047.5L870.613 1051.38L924.139 1055.26L804 1087Z" fill="#D9D1D0"/>
</g>
<path id="Vector 41" d="M978 1155L998 1091L1035 1155H978Z" fill="#D9D1D0"/>
</g>
<g id="shoes-5">
<g id="back-5">
<path id="Vector 39_5" d="M782.383 781.716L716.26 849.316L740.357 895.892L866.076 980.069L983.143 1031.36L1008.19 1018.15L1008.06 1013.43L999.532 998.402L966.153 959.795L959.927 950.398L950.43 928.605L903.902 852.683L882.045 832.057L872.13 809.241L866.92 812.563L838.886 838.937L834.526 839.225L805.635 839.383L793.039 829.005L801.299 800.259L797.876 788.224L782.383 781.716Z" fill="white"/>
<g id="Vector 11_5">
<path d="M668.398 896.675L715.664 847.977L785.908 896.512L789.499 911.662L930.272 983.874L1008.38 1017.92L999.939 1057.8L981.614 1058.28L903.478 1033.26L680.715 912.39L668.398 896.675Z" fill="#C07568"/>
<path d="M761.503 792.946L722.962 842.209L779.183 787.253L800.192 788.23L782.387 781.348L761.503 792.946Z" fill="#C07568"/>
<path d="M795.845 828.255L801.191 799.194L789.758 830.51L805.233 841.686L835.641 839.425L807.563 837.392L795.845 828.255Z" fill="#C07568"/>
<path d="M882.502 827.331L871.641 808.932L876.123 830.124L898.885 852.201L947.159 928.42L960.076 950.714L954.275 928.111L904.435 849.654L882.502 827.331Z" fill="#C07568"/>
<path d="M1000.97 994.44L965.798 959.376L995.126 997.523L1007.98 1013.53L1000.97 994.44Z" fill="#C07568"/>
</g>
<path id="Vector 12_5" d="M870.065 823.362L866.873 812.598L838.662 838.98L870.065 823.362Z" fill="#C07568"/>
</g>
<g id="front-5">
<path id="Vector 39_6" d="M521.438 880.486L485.236 995.924L539.727 1035.07L731.914 1058.15L895.163 1048.75L916.066 1019.16L913.173 1013.85L894.738 1001.66L834.284 976.992L821.734 969.886L798.265 950.541L701.174 890.944L664.288 880.097L639.749 859.828L635.733 866.638L619.059 912.973L614.254 915.83L581.398 932.764L561.015 928.235L553.763 890.662L542.881 878.923L521.438 880.486Z" fill="white"/>
<g id="Vector 11_6">
<path d="M458.119 1077.69L483.78 994.742L592.032 1009.35L604.914 1024.55L807.329 1025.26L916.145 1018.78L929.651 1069.17L909.031 1080.34L805.412 1097.12L481.279 1088.47L458.119 1077.69Z" fill="#DE8879"/>
<path d="M504.14 905.401L488.758 983.933L521 888.656L545.525 877.586L521.229 880.065L504.14 905.401Z" fill="#DE8879"/>
<path d="M563.78 925.751L553.023 889.51L558.146 931.854L582.275 935.624L615.642 915.411L582.442 929.375L563.78 925.751Z" fill="#DE8879"/>
<path d="M662.067 874.443L639.011 859.759L656.413 881.326L695.173 893.303L794.427 952.226L822.087 970.159L802.363 947.748L700.026 887.18L662.067 874.443Z" fill="#DE8879"/>
<path d="M894.078 996.31L833.636 976.72L889.204 1003.21L913.145 1014.01L894.078 996.31Z" fill="#DE8879"/>
</g>
<path id="Vector 12_6" d="M645.582 877.129L635.699 866.705L618.828 913.151L645.582 877.129Z" fill="#DE8879"/>
</g>
</g>
<g id="thud-illustration-2">
<path id="Vector 42" d="M274.14 992.936L412.747 1077.8L235 1030.14L274.14 992.936Z" fill="#D9D1D0"/>
<g id="Vector 43">
<path d="M314.5 1200L448.5 1138L367 1220L314.5 1200Z" fill="#D9D1D0"/>
<path d="M706 1220L573 1138L647 1220H706Z" fill="#D9D1D0"/>
</g>
</g>
<g id="shoes-4">
<g id="back-4">
<path id="Vector 39_7" d="M795.7 635.215L723.635 696.442L743.342 745.039L860.779 840.432L972.626 902.284L998.786 891.431L999.085 886.718L991.98 870.971L962.297 829.456L956.962 819.525L949.512 796.951L910.17 717.068L890.305 694.518L882.533 670.886L877.039 673.714L846.695 697.396L842.327 697.281L813.545 694.778L801.958 683.285L812.829 655.421L810.528 643.122L795.7 635.215Z" fill="white"/>
<g id="Vector 11_7">
<path d="M671.616 739.193L723.165 695.053L788.642 749.848L790.824 765.265L924.352 850.129L998.994 891.216L986.917 930.157L968.625 928.948L893.125 896.836L682.434 755.976L671.616 739.193Z" fill="#C07568"/>
<path d="M773.876 644.476L730.963 689.982L792.004 640.434L812.834 643.341L795.738 634.85L773.876 644.476Z" fill="#C07568"/>
<path d="M804.821 682.796L812.82 654.351L798.552 684.481L812.933 697.034L843.42 697.582L815.648 692.973L804.821 682.796Z" fill="#C07568"/>
<path d="M891.195 689.854L882.074 670.533L884.586 692.047L905.219 716.126L946.272 796.465L957.082 819.853L953.386 796.813L910.98 714.101L891.195 689.854Z" fill="#C07568"/>
<path d="M993.775 867.158L961.982 829.006L987.674 869.69L998.999 886.813L993.775 867.158Z" fill="#C07568"/>
</g>
<path id="Vector 12_7" d="M879.176 684.756L876.988 673.744L846.469 697.417L879.176 684.756Z" fill="#C07568"/>
</g>
<g id="front-4">
<path id="Vector 39_8" d="M521.438 880.486L485.236 995.924L539.727 1035.07L731.914 1058.15L895.163 1048.75L916.066 1019.16L913.173 1013.85L894.738 1001.66L834.284 976.992L821.734 969.886L798.265 950.541L701.174 890.944L664.288 880.097L639.749 859.828L635.733 866.638L619.059 912.973L614.254 915.83L581.398 932.764L561.015 928.235L553.763 890.662L542.881 878.923L521.438 880.486Z" fill="white"/>
<g id="Vector 11_8">
<path d="M458.119 1077.69L483.78 994.742L592.032 1009.35L604.914 1024.55L807.329 1025.26L916.145 1018.78L929.651 1069.17L909.031 1080.34L805.412 1097.12L481.279 1088.47L458.119 1077.69Z" fill="#DE8879"/>
<path d="M504.14 905.401L488.758 983.933L521 888.656L545.525 877.586L521.229 880.065L504.14 905.401Z" fill="#DE8879"/>
<path d="M563.78 925.751L553.023 889.51L558.146 931.854L582.275 935.624L615.642 915.411L582.442 929.375L563.78 925.751Z" fill="#DE8879"/>
<path d="M662.067 874.443L639.011 859.759L656.413 881.326L695.173 893.303L794.427 952.226L822.087 970.159L802.363 947.748L700.026 887.18L662.067 874.443Z" fill="#DE8879"/>
<path d="M894.078 996.31L833.636 976.72L889.204 1003.21L913.145 1014.01L894.078 996.31Z" fill="#DE8879"/>
</g>
<path id="Vector 12_8" d="M645.582 877.129L635.699 866.705L618.828 913.151L645.582 877.129Z" fill="#DE8879"/>
</g>
</g>
<g id="thud illustration">
<g id="Vector 40_2">
<path d="M1002.5 1031L886 1096L1048.5 1085.5L1002.5 1031Z" fill="#D9D1D0"/>
<path d="M530 1148L549.5 1089.5L629.25 1095.25L709 1101L530 1148Z" fill="#D9D1D0"/>
</g>
<path id="Vector 41_2" d="M789 1250L819 1155L874.5 1250H789Z" fill="#D9D1D0"/>
</g>
<g id="shoes-3">
<g id="back-3">
<path id="Vector 39_9" d="M787.922 438.252L715.858 499.479L735.564 548.076L853.001 643.469L964.848 705.321L991.009 694.468L991.307 689.755L984.202 674.008L954.519 632.493L949.185 622.562L941.734 599.988L902.392 520.105L882.527 497.555L874.755 473.923L869.261 476.751L838.918 500.433L834.55 500.318L805.767 497.815L794.18 486.322L805.051 458.458L802.751 446.159L787.922 438.252Z" fill="white"/>
<g id="Vector 11_9">
<path d="M663.839 542.23L715.387 498.09L780.865 552.885L783.046 568.302L916.574 653.166L991.216 694.253L979.139 733.195L960.848 731.985L885.347 699.873L674.657 559.013L663.839 542.23Z" fill="#C07568"/>
<path d="M766.098 447.513L723.185 493.019L784.227 443.472L805.056 446.378L787.96 437.887L766.098 447.513Z" fill="#C07568"/>
<path d="M797.044 485.833L805.042 457.388L790.774 487.518L805.155 500.071L835.642 500.619L807.871 496.01L797.044 485.833Z" fill="#C07568"/>
<path d="M883.417 492.891L874.296 473.57L876.809 495.084L897.441 519.163L938.494 599.502L949.304 622.89L945.608 599.85L903.203 517.138L883.417 492.891Z" fill="#C07568"/>
<path d="M985.997 670.195L954.204 632.043L979.896 672.728L991.222 689.85L985.997 670.195Z" fill="#C07568"/>
</g>
<path id="Vector 12_9" d="M871.398 487.794L869.211 476.781L838.692 500.454L871.398 487.794Z" fill="#C07568"/>
</g>
<g id="front-3">
<path id="Vector 39_10" d="M561.556 727.276L473.165 809.88L501.289 870.792L657.138 985.596L803.816 1057.87L836.591 1042.42L836.688 1036.38L826.655 1016.69L786.21 965.428L778.792 953.06L767.905 924.662L712.796 824.955L686.045 797.338L674.683 767.608L667.833 771.555L630.488 803.654L624.899 803.772L587.965 802.315L572.461 788.328L584.669 752.061L580.985 736.483L561.556 727.276Z" fill="white"/>
<g id="Vector 11_10">
<path d="M409.273 867.661L472.48 808.134L559.472 874.199L563.193 893.768L738.969 994.143L836.844 1042.14L823.765 1092.63L800.317 1092.19L701.888 1055.72L424.114 888.454L409.273 867.661Z" fill="#DE8879"/>
<path d="M534.226 740.43L482.139 801.181L557.15 734.169L583.945 736.624L561.583 726.807L534.226 740.43Z" fill="#DE8879"/>
<path d="M576.092 787.53L584.593 750.694L568.182 790.063L587.319 805.235L626.314 804.091L590.544 799.88L576.092 787.53Z" fill="#DE8879"/>
<path d="M686.9 791.324L674.075 767.185L678.588 794.527L706.412 824.051L763.736 924.237L778.965 953.472L772.848 924.251L713.652 821.114L686.9 791.324Z" fill="#DE8879"/>
<path d="M828.718 1011.71L785.781 964.873L821.075 1015.31L836.585 1036.51L828.718 1011.71Z" fill="#DE8879"/>
</g>
<path id="Vector 12_10" d="M671.232 785.538L667.771 771.597L630.201 803.696L671.232 785.538Z" fill="#DE8879"/>
</g>
</g>
</g>
<defs>
<clipPath id="clip0_7:599">
<rect width="1464" height="1421" fill="white"/>
</clipPath>
</defs>
</svg>
