<svg width="1464" height="1421" viewBox="0 0 1464 1421" fill="none" xmlns="http://www.w3.org/2000/svg">
<g id="preloader" clip-path="url(#clip0_7:599)">
<rect width="1464" height="1421" fill="white"/>
<g id="line-cut">
<line id="Line 1" x1="1464" y1="49" x2="0.00012207" y2="49" stroke="black" stroke-width="20"/>
<rect id="Rectangle 5" x="-2" y="-1675" width="1466" height="1714" fill="white"/>
</g>
<g id="spikes">
<path id="Vector 13" d="M629.232 674.58L728.264 762.416L645.77 657.717L629.232 674.58Z" fill="black"/>
<path id="Vector 14" d="M841.378 868.036L744.058 778.305L824.517 884.576L841.378 868.036Z" fill="black"/>
<path id="Vector 15" d="M639.537 878.207L726.137 778.092L622.47 861.879L639.537 878.207Z" fill="black"/>
<path id="Vector 16" d="M817.264 651.97L744.252 762.387L836.288 665.969L817.264 651.97Z" fill="black"/>
<path id="Vector 17" d="M725.533 653.34L736.911 734.245L751.246 654.208L725.533 653.34Z" fill="black"/>
<path id="Vector 18" d="M838.088 745.816L759.088 766.647L840.256 771.452L838.088 745.816Z" fill="black"/>
<path id="Vector 19" d="M747.808 877.792L735.599 797.009L722.087 877.189L747.808 877.792Z" fill="black"/>
<path id="Vector 20" d="M634.446 792.102L713.14 770.142L631.911 766.499L634.446 792.102Z" fill="black"/>
<path id="Vector 21" d="M729.135 739.76L711.723 690.014L701.359 693.537L729.135 739.76Z" fill="black"/>
<path id="Vector 22" d="M744.759 741.158L772.33 696.238L763.052 690.429L744.759 741.158Z" fill="black"/>
<path id="Vector 23" d="M743.163 790.242L763.711 838.777L773.829 834.6L743.163 790.242Z" fill="black"/>
<path id="Vector 24" d="M727.481 789.844L702.831 836.43L712.46 841.635L727.481 789.844Z" fill="black"/>
<path id="Vector 25" d="M712.546 777.431L664.91 799.985L669.505 809.92L712.546 777.431Z" fill="black"/>
<path id="Vector 26" d="M712.291 761.746L664.717 739.059L659.917 748.897L712.291 761.746Z" fill="black"/>
<path id="Vector 27" d="M755.365 761.094L802.223 736.966L797.299 727.189L755.365 761.094Z" fill="black"/>
<path id="Vector 28" d="M756.143 776.762L804.446 797.851L808.915 787.858L756.143 776.762Z" fill="black"/>
</g>
<g id="wolf-4">
<path id="Vector 46" d="M533.5 493L655.61 606.115L814.5 603.5L852.5 569.5L927 504L922 698.5L920.821 708.283L945.935 822.24L813 914.5L801 997L732.5 1045L704.5 1025L665.656 996.5L654.5 919.5L523.5 823.5L552 704L533.5 493Z" fill="white"/>
<path id="Vector 29" d="M813 923L819.5 870L944.5 821.5L813 923Z" fill="#DE8879"/>
<path id="Vector 311" d="M652.5 919L644 869.5L524 821.5L652.5 919Z" fill="#DE8879"/>
<path id="Vector 30" d="M760.5 1025L732 1007L704 1022.5L733.187 1045.5L760.5 1025Z" fill="#DE8879"/>
<path id="Vector 310" d="M903.5 563L852 570L928.5 502.5L924 616.5L903.5 563Z" fill="#58A156"/>
<path id="Vector 7" d="M814.5 870L944.5 819.5" stroke="black" stroke-width="4"/>
<path id="Vector 47" d="M650.5 870L520.5 819.5" stroke="black" stroke-width="4"/>
<path id="Vector 31" d="M560 562.5L544 614.5L534 492.5L617.5 571.5L560 562.5Z" fill="#58A156"/>
</g>
<g id="wolf-3">
<path id="Vector 51" d="M732.22 850.545L645.983 870.813L666.515 996.47L732.22 1045.11L802.031 996.47L818.457 870.813L732.22 850.545Z" stroke="black" stroke-width="4"/>
<path id="Vector 41" d="M533.5 493L651 603.5L552 705L544.5 617L533.5 493Z" stroke="black" stroke-width="4"/>
<path id="Vector 55" d="M922 710L815 603.5L850 571.5L928.5 502.5L924 616L922 710Z" stroke="black" stroke-width="4"/>
</g>
<g id="wolf-2">
<path id="Vector 5" d="M814.563 604H650.302L551.746 705.337L523 822.888L654.409 920.171L646 871L732 850.5L818.5 871L812 924.5L945.972 822.888L921.333 709.39L814.563 604Z" stroke="black" stroke-width="4"/>
</g>
<g id="wolf-1">
<path id="Vector 8" d="M903.677 563L850.543 571.174L813.758 603.872L921.5 710L924.114 616.134L903.677 563Z" stroke="black" stroke-width="3"/>
<path id="Vector 56" d="M651.5 603L552.5 706L544 616L560.5 563L617.5 571L651.5 603Z" stroke="black" stroke-width="3"/>
<path id="Vector 8_2" d="M703 1021.99L732.013 1007L760.5 1023.99L732.013 1043.79L703 1021.99Z" stroke="black" stroke-width="3"/>
</g>
<line id="Line 4" x1="732.5" y1="604" x2="732.5" y2="1007" stroke="black" stroke-width="3"/>
<g id="left-boot">
<mask id="mask0_7:599" style="mask-type:alpha" maskUnits="userSpaceOnUse" x="370" y="500" width="352" height="679">
<path id="box" d="M370 1179H722V500H370V1179Z" fill="#C4C4C4"/>
</mask>
<g mask="url(#mask0_7:599)">
<g id="boots-10">
<g id="darkg-10">
<path id="Vector 46_2" d="M814.065 608.062L685.52 610.263L684.2 623.469L684.64 626.551L693.444 709.753L694.765 739.688L662.629 786.792L653.384 807.042V824.651L757.277 959.799L940.849 980.929L980.029 942.63L973.425 936.467L950.094 903.01L907.832 896.407L888.463 889.803L869.533 878.798L848.843 850.183L818.908 765.221L814.065 739.688V622.149V608.062Z" fill="white"/>
<g id="Vector 6">
<path d="M684.334 611.048C701.906 605.512 752.502 597.183 814.314 608.16C773.154 609.122 689.534 611.048 684.334 611.048Z" fill="#497E48"/>
<path d="M814.314 741.75V619.713L801.316 721.531L814.314 741.75Z" fill="#497E48"/>
<path d="M888.691 889.782C862.695 876.495 831.163 800 818.647 763.413L850.42 876.784L888.691 889.782Z" fill="#497E48"/>
<path d="M952.237 899.892C945.882 899.892 919.742 897.485 907.466 896.281L952.237 910.001L973.178 936.719C975.344 917.222 960.18 899.892 952.237 899.892Z" fill="#497E48"/>
<path d="M691.556 733.807L684.334 624.046L703.109 741.75L661.949 787.965L691.556 733.807Z" fill="#497E48"/>
</g>
<path id="Vector 5_2" d="M674.229 840.679L653.288 806.74L641.012 824.07L605.629 912.168L592.631 1020.48L653.288 1052.26H734.164L789.767 1014.71L813.596 1052.26H913.247L993.401 1020.48L980.403 942.496L859.811 956.938L813.596 948.273L747.884 873.896L674.229 840.679Z" fill="#497E48"/>
</g>
<g id="lightg-10">
<path id="Vector 46_3" d="M721.731 590.981L576.177 593.474L574.682 608.428L575.18 611.917L585.15 706.128L586.645 740.024L550.257 793.361L539.789 816.29V836.229L657.428 989.26L865.29 1013.19L904.669 970.318L895.198 946.391L875.758 924.957L827.905 917.48L805.972 910.003L784.538 897.541L761.11 865.14L727.214 768.936L721.731 740.024V606.933V590.981Z" fill="white"/>
<g id="Vector 6_2">
<path d="M574.841 594.362C594.737 588.094 652.028 578.663 722.019 591.092C675.413 592.182 580.728 594.362 574.841 594.362Z" fill="#58A256"/>
<path d="M722.019 742.358V604.174L707.301 719.464L722.019 742.358Z" fill="#58A256"/>
<path d="M806.238 909.978C776.802 894.933 741.098 808.316 726.925 766.888L762.902 895.26L806.238 909.978Z" fill="#58A256"/>
<path d="M878.191 921.425C870.996 921.425 841.397 918.7 827.497 917.337L878.191 932.872L901.903 963.126C904.356 941.049 887.186 921.425 878.191 921.425Z" fill="#58A256"/>
<path d="M583.017 733.364L574.841 609.08L596.1 742.358L549.493 794.688L583.017 733.364Z" fill="#58A256"/>
</g>
<path id="Vector 5_3" d="M563.395 854.375L539.683 815.945L525.783 835.569L485.718 935.323L471 1057.97L539.683 1093.95H631.261L694.22 1051.43L721.203 1093.95H834.04L924.799 1057.97L910.082 969.664L773.533 986.017L721.203 976.206L646.796 891.987L563.395 854.375Z" fill="#58A256"/>
</g>
</g>
</g>
</g>
<g id="right-boot">
<mask id="mask1_7:599" style="mask-type:alpha" maskUnits="userSpaceOnUse" x="722" y="449" width="352" height="679">
<path id="box_2" d="M722 1128H1074V449H722V1128Z" fill="#C4C4C4"/>
</mask>
<g mask="url(#mask1_7:599)">
<g id="boots-10_2">
<g id="darkg-10_2">
<path id="Vector 46_4" d="M814.065 608.062L685.52 610.263L684.2 623.469L684.64 626.551L693.444 709.753L694.765 739.688L662.629 786.792L653.384 807.042V824.651L757.277 959.799L940.849 980.929L980.029 942.63L973.425 936.467L950.094 903.01L907.832 896.407L888.463 889.803L869.533 878.798L848.843 850.183L818.908 765.221L814.065 739.688V622.149V608.062Z" fill="white"/>
<g id="Vector 6_3">
<path d="M684.334 611.048C701.906 605.512 752.502 597.183 814.314 608.16C773.154 609.122 689.534 611.048 684.334 611.048Z" fill="#497E48"/>
<path d="M814.314 741.75V619.713L801.316 721.531L814.314 741.75Z" fill="#497E48"/>
<path d="M888.691 889.782C862.695 876.495 831.163 800 818.647 763.413L850.42 876.784L888.691 889.782Z" fill="#497E48"/>
<path d="M952.237 899.892C945.882 899.892 919.742 897.485 907.466 896.281L952.237 910.001L973.178 936.719C975.344 917.222 960.18 899.892 952.237 899.892Z" fill="#497E48"/>
<path d="M691.556 733.807L684.334 624.046L703.109 741.75L661.949 787.965L691.556 733.807Z" fill="#497E48"/>
</g>
<path id="Vector 5_4" d="M674.229 840.679L653.288 806.74L641.012 824.07L605.629 912.168L592.631 1020.48L653.288 1052.26H734.164L789.767 1014.71L813.596 1052.26H913.247L993.401 1020.48L980.403 942.496L859.811 956.938L813.596 948.273L747.884 873.896L674.229 840.679Z" fill="#497E48"/>
</g>
<g id="lightg-10_2">
<path id="Vector 46_5" d="M721.731 590.981L576.177 593.474L574.682 608.428L575.18 611.917L585.15 706.128L586.645 740.024L550.257 793.361L539.789 816.29V836.229L657.428 989.26L865.29 1013.19L904.669 970.318L895.198 946.391L875.758 924.957L827.905 917.48L805.972 910.003L784.538 897.541L761.11 865.14L727.214 768.936L721.731 740.024V606.933V590.981Z" fill="white"/>
<g id="Vector 6_4">
<path d="M574.841 594.362C594.737 588.094 652.028 578.663 722.019 591.092C675.413 592.182 580.728 594.362 574.841 594.362Z" fill="#58A256"/>
<path d="M722.019 742.358V604.174L707.301 719.464L722.019 742.358Z" fill="#58A256"/>
<path d="M806.238 909.978C776.802 894.933 741.098 808.316 726.925 766.888L762.902 895.26L806.238 909.978Z" fill="#58A256"/>
<path d="M878.191 921.425C870.996 921.425 841.397 918.7 827.497 917.337L878.191 932.872L901.903 963.126C904.356 941.049 887.186 921.425 878.191 921.425Z" fill="#58A256"/>
<path d="M583.017 733.364L574.841 609.08L596.1 742.358L549.493 794.688L583.017 733.364Z" fill="#58A256"/>
</g>
<path id="Vector 5_5" d="M563.395 854.375L539.683 815.945L525.783 835.569L485.718 935.323L471 1057.97L539.683 1093.95H631.261L694.22 1051.43L721.203 1093.95H834.04L924.799 1057.97L910.082 969.664L773.533 986.017L721.203 976.206L646.796 891.987L563.395 854.375Z" fill="#58A256"/>
</g>
</g>
</g>
</g>
<g id="lines">
<line id="leftline-1" x1="720" y1="-11" x2="720" y2="1424.36" stroke="black" stroke-width="20"/>
<line id="rightline-1" x1="720" y1="-11" x2="720" y2="1424.36" stroke="black" stroke-width="20"/>
</g>
<g id="thud-illustration-5">
<g id="Vector 54">
<path d="M253 1141.5L464.5 1127L317 1200L253 1141.5Z" fill="#D0DECF"/>
<path d="M665.5 1387L754 1200L874.5 1376.5L665.5 1387Z" fill="#D0DECF"/>
</g>
<path id="Vector 55_2" d="M1286 1150L974 1123L1177.5 1243.5L1286 1150Z" fill="#D0DECF"/>
</g>
<g id="thud-illustration-4">
<g id="Vector 53">
<path d="M246 1135.5L457.5 1121L310 1194L246 1135.5Z" fill="#D0DECF"/>
<path d="M601 1386.5L700 1194L785.5 1377L601 1386.5Z" fill="#D0DECF"/>
</g>
</g>
<g id="boots-9">
<g id="darkg-9">
<path id="Vector 46_6" d="M814.065 608.062L685.52 610.263L684.2 623.469L684.64 626.551L693.444 709.753L694.765 739.688L662.629 786.792L653.384 807.042V824.651L757.277 959.799L940.849 980.929L980.029 942.63L973.425 936.467L950.094 903.01L907.832 896.407L888.463 889.803L869.533 878.798L848.843 850.183L818.908 765.221L814.065 739.688V622.149V608.062Z" fill="white"/>
<g id="Vector 6_5">
<path d="M684.334 611.048C701.906 605.512 752.502 597.183 814.314 608.16C773.154 609.122 689.534 611.048 684.334 611.048Z" fill="#497E48"/>
<path d="M814.314 741.75V619.713L801.316 721.531L814.314 741.75Z" fill="#497E48"/>
<path d="M888.691 889.782C862.695 876.495 831.163 800 818.647 763.413L850.42 876.784L888.691 889.782Z" fill="#497E48"/>
<path d="M952.237 899.892C945.882 899.892 919.742 897.485 907.466 896.281L952.237 910.001L973.178 936.719C975.344 917.222 960.18 899.892 952.237 899.892Z" fill="#497E48"/>
<path d="M691.556 733.807L684.334 624.046L703.109 741.75L661.949 787.965L691.556 733.807Z" fill="#497E48"/>
</g>
<path id="Vector 5_6" d="M674.229 840.679L653.288 806.74L641.012 824.07L605.629 912.168L592.631 1020.48L653.288 1052.26H734.164L789.767 1014.71L813.596 1052.26H913.247L993.401 1020.48L980.403 942.496L859.811 956.938L813.596 948.273L747.884 873.896L674.229 840.679Z" fill="#497E48"/>
</g>
<g id="lightg-9">
<path id="Vector 46_7" d="M721.73 590.981L576.177 593.474L574.682 608.428L575.18 611.917L585.149 706.128L586.645 740.024L550.256 793.361L539.789 816.29V836.229L657.428 989.26L865.29 1013.19L904.669 970.318L895.198 946.391L875.758 924.957L827.905 917.48L805.972 910.003L784.538 897.541L761.11 865.14L727.214 768.936L721.73 740.024V606.933V590.981Z" fill="white"/>
<g id="Vector 6_6">
<path d="M574.841 594.362C594.737 588.094 652.028 578.663 722.019 591.092C675.413 592.182 580.728 594.362 574.841 594.362Z" fill="#58A256"/>
<path d="M722.019 742.358V604.174L707.301 719.464L722.019 742.358Z" fill="#58A256"/>
<path d="M806.238 909.978C776.802 894.933 741.098 808.316 726.925 766.888L762.902 895.26L806.238 909.978Z" fill="#58A256"/>
<path d="M878.191 921.425C870.996 921.425 841.397 918.7 827.497 917.337L878.191 932.872L901.903 963.126C904.356 941.049 887.186 921.425 878.191 921.425Z" fill="#58A256"/>
<path d="M583.017 733.364L574.841 609.08L596.1 742.358L549.493 794.688L583.017 733.364Z" fill="#58A256"/>
</g>
<path id="Vector 5_7" d="M563.395 854.375L539.683 815.945L525.783 835.569L485.718 935.323L471 1057.97L539.683 1093.95H631.261L694.22 1051.43L721.203 1093.95H834.04L924.799 1057.97L910.082 969.664L773.533 986.017L721.203 976.206L646.796 891.987L563.395 854.375Z" fill="#58A256"/>
</g>
</g>
<g id="thud-illustration-4_2">
<path id="Vector 44" d="M454.939 917.944L527.539 1010.49L419 933.3L454.939 917.944Z" fill="#D9D1D0"/>
<g id="Vector 45">
<path d="M395.746 1126.02L497.264 1101.4L429.439 1147.11L395.746 1126.02Z" fill="#D9D1D0"/>
<path d="M664.733 1193.66L583.677 1118.5L623.782 1185.56L664.733 1193.66Z" fill="#D9D1D0"/>
</g>
</g>
<g id="thud-illustration-3">
<g id="Vector 40">
<path d="M1041.13 1008L962.935 1051.89L1072 1044.8L1041.13 1008Z" fill="#D9D1D0"/>
<path d="M724 1087L737.088 1047.5L790.613 1051.38L844.139 1055.26L724 1087Z" fill="#D9D1D0"/>
</g>
<path id="Vector 41_2" d="M898 1155L918 1091L955 1155H898Z" fill="#D9D1D0"/>
</g>
<g id="shoes-5">
<g id="back-5">
<path id="Vector 39" d="M698.383 784.716L632.26 852.316L656.357 898.892L782.076 983.069L899.143 1034.36L924.193 1021.15L924.056 1016.43L915.532 1001.4L882.153 962.795L875.927 953.398L866.43 931.605L819.902 855.683L798.045 835.057L788.13 812.241L782.92 815.563L754.886 841.937L750.526 842.225L721.635 842.383L709.039 832.005L717.299 803.259L713.876 791.224L698.383 784.716Z" fill="white"/>
<g id="Vector 11">
<path d="M584.398 899.675L631.664 850.977L701.908 899.512L705.499 914.662L846.272 986.874L924.38 1020.92L915.939 1060.8L897.614 1061.28L819.478 1036.26L596.715 915.39L584.398 899.675Z" fill="#C07568"/>
<path d="M677.503 795.946L638.962 845.209L695.183 790.253L716.192 791.23L698.387 784.348L677.503 795.946Z" fill="#C07568"/>
<path d="M711.845 831.255L717.191 802.194L705.758 833.51L721.233 844.686L751.641 842.425L723.563 840.392L711.845 831.255Z" fill="#C07568"/>
<path d="M798.502 830.331L787.641 811.932L792.123 833.124L814.885 855.201L863.159 931.42L876.076 953.714L870.275 931.111L820.435 852.654L798.502 830.331Z" fill="#C07568"/>
<path d="M916.968 997.44L881.798 962.376L911.126 1000.52L923.98 1016.53L916.968 997.44Z" fill="#C07568"/>
</g>
<path id="Vector 12" d="M786.065 826.362L782.873 815.598L754.662 841.98L786.065 826.362Z" fill="#C07568"/>
</g>
<g id="front-5">
<path id="Vector 39_2" d="M521.438 880.486L485.236 995.924L539.727 1035.07L731.914 1058.15L895.163 1048.75L916.066 1019.16L913.173 1013.85L894.738 1001.66L834.284 976.992L821.734 969.886L798.265 950.541L701.174 890.944L664.288 880.097L639.749 859.828L635.733 866.638L619.059 912.973L614.254 915.83L581.398 932.764L561.015 928.235L553.763 890.662L542.881 878.923L521.438 880.486Z" fill="white"/>
<g id="Vector 11_2">
<path d="M458.119 1077.69L483.78 994.742L592.032 1009.35L604.914 1024.55L807.329 1025.26L916.145 1018.78L929.651 1069.17L909.031 1080.34L805.412 1097.12L481.279 1088.47L458.119 1077.69Z" fill="#DE8879"/>
<path d="M504.14 905.401L488.758 983.933L521 888.656L545.525 877.586L521.229 880.065L504.14 905.401Z" fill="#DE8879"/>
<path d="M563.78 925.751L553.023 889.51L558.146 931.854L582.275 935.624L615.642 915.411L582.442 929.375L563.78 925.751Z" fill="#DE8879"/>
<path d="M662.067 874.443L639.011 859.759L656.413 881.326L695.173 893.303L794.427 952.226L822.087 970.159L802.363 947.748L700.026 887.18L662.067 874.443Z" fill="#DE8879"/>
<path d="M894.078 996.31L833.636 976.72L889.204 1003.21L913.145 1014.01L894.078 996.31Z" fill="#DE8879"/>
</g>
<path id="Vector 12_2" d="M645.582 877.129L635.699 866.705L618.828 913.151L645.582 877.129Z" fill="#DE8879"/>
</g>
</g>
<g id="shoes-3">
<g id="back-3">
<path id="Vector 39_3" d="M787.922 438.252L715.858 499.479L735.564 548.076L853.001 643.469L964.848 705.321L991.009 694.468L991.307 689.755L984.202 674.008L954.519 632.493L949.185 622.562L941.734 599.988L902.392 520.105L882.527 497.555L874.755 473.923L869.261 476.751L838.918 500.433L834.55 500.318L805.767 497.815L794.18 486.322L805.051 458.458L802.751 446.159L787.922 438.252Z" fill="white"/>
<g id="Vector 11_3">
<path d="M663.839 542.23L715.387 498.09L780.865 552.885L783.046 568.302L916.574 653.166L991.216 694.253L979.139 733.195L960.848 731.985L885.347 699.873L674.657 559.013L663.839 542.23Z" fill="#C07568"/>
<path d="M766.098 447.513L723.185 493.019L784.227 443.472L805.056 446.378L787.96 437.887L766.098 447.513Z" fill="#C07568"/>
<path d="M797.044 485.833L805.042 457.388L790.774 487.518L805.155 500.071L835.642 500.619L807.871 496.01L797.044 485.833Z" fill="#C07568"/>
<path d="M883.417 492.891L874.296 473.57L876.809 495.084L897.441 519.163L938.494 599.502L949.304 622.89L945.608 599.85L903.203 517.138L883.417 492.891Z" fill="#C07568"/>
<path d="M985.997 670.195L954.204 632.043L979.896 672.728L991.222 689.85L985.997 670.195Z" fill="#C07568"/>
</g>
<path id="Vector 12_3" d="M871.398 487.794L869.211 476.781L838.692 500.454L871.398 487.794Z" fill="#C07568"/>
</g>
<g id="front-3">
<path id="Vector 39_4" d="M561.556 727.276L473.165 809.88L501.289 870.792L657.138 985.596L803.816 1057.87L836.591 1042.42L836.688 1036.38L826.655 1016.69L786.21 965.428L778.792 953.06L767.905 924.662L712.796 824.955L686.045 797.338L674.683 767.608L667.833 771.555L630.488 803.654L624.899 803.772L587.965 802.315L572.461 788.328L584.669 752.061L580.985 736.483L561.556 727.276Z" fill="white"/>
<g id="Vector 11_4">
<path d="M409.273 867.661L472.48 808.134L559.472 874.199L563.193 893.768L738.969 994.143L836.844 1042.14L823.765 1092.63L800.317 1092.19L701.888 1055.72L424.114 888.454L409.273 867.661Z" fill="#DE8879"/>
<path d="M534.226 740.43L482.139 801.181L557.15 734.169L583.945 736.624L561.583 726.807L534.226 740.43Z" fill="#DE8879"/>
<path d="M576.092 787.53L584.593 750.694L568.182 790.063L587.319 805.235L626.314 804.091L590.544 799.88L576.092 787.53Z" fill="#DE8879"/>
<path d="M686.9 791.324L674.075 767.185L678.588 794.527L706.412 824.051L763.736 924.237L778.965 953.472L772.848 924.251L713.652 821.114L686.9 791.324Z" fill="#DE8879"/>
<path d="M828.718 1011.71L785.781 964.873L821.075 1015.31L836.585 1036.51L828.718 1011.71Z" fill="#DE8879"/>
</g>
<path id="Vector 12_4" d="M671.232 785.538L667.771 771.597L630.201 803.696L671.232 785.538Z" fill="#DE8879"/>
</g>
</g>
<g id="boots-8">
<g id="darkg-8">
<path id="Vector 46_8" d="M634.044 962.28L626.908 962.402L626.835 963.136L626.86 963.307L627.348 967.925L627.422 969.587L625.638 972.202L625.125 973.326V974.304L630.892 981.806L641.083 982.979L643.258 980.853L642.891 980.511L641.596 978.654L639.25 978.287L638.174 977.921L637.124 977.31L635.975 975.721L634.313 971.005L634.044 969.587V963.062V962.28Z" fill="white"/>
<g id="Vector 6_7">
<path d="M626.843 962.446C627.818 962.139 630.627 961.677 634.058 962.286C631.774 962.339 627.132 962.446 626.843 962.446Z" fill="#497E48"/>
<path d="M634.058 969.702V962.927L633.337 968.58L634.058 969.702Z" fill="#497E48"/>
<path d="M638.187 977.92C636.744 977.182 634.994 972.936 634.299 970.905L636.063 977.198L638.187 977.92Z" fill="#497E48"/>
<path d="M641.715 978.481C641.362 978.481 639.911 978.347 639.23 978.28L641.715 979.042L642.877 980.525C642.998 979.443 642.156 978.481 641.715 978.481Z" fill="#497E48"/>
<path d="M627.244 969.261L626.843 963.168L627.885 969.702L625.6 972.267L627.244 969.261Z" fill="#497E48"/>
</g>
<path id="Vector 5_8" d="M626.282 975.194L625.119 973.31L624.438 974.272L622.474 979.163L621.752 985.176L625.119 986.939H629.609L632.696 984.855L634.018 986.939H639.55L644 985.176L643.278 980.846L636.584 981.648L634.018 981.167L630.371 977.038L626.282 975.194Z" fill="#497E48"/>
</g>
<g id="lightg-8">
<path id="Vector 46_9" d="M628.919 961.333L620.839 961.471L620.756 962.301L620.783 962.495L621.337 967.725L621.42 969.606L619.4 972.567L618.819 973.84V974.947L625.349 983.442L636.888 984.77L639.074 982.391L638.548 981.062L637.469 979.873L634.813 979.457L633.595 979.042L632.405 978.351L631.105 976.552L629.223 971.211L628.919 969.606V962.218V961.333Z" fill="white"/>
<g id="Vector 6_8">
<path d="M620.765 961.52C621.869 961.172 625.05 960.648 628.935 961.338C626.348 961.399 621.091 961.52 620.765 961.52Z" fill="#58A256"/>
<path d="M628.935 969.735V962.064L628.118 968.464L628.935 969.735Z" fill="#58A256"/>
<path d="M633.61 979.041C631.976 978.205 629.994 973.397 629.207 971.097L631.204 978.223L633.61 979.041Z" fill="#58A256"/>
<path d="M637.605 979.676C637.205 979.676 635.562 979.525 634.79 979.449L637.605 980.311L638.921 981.991C639.057 980.765 638.104 979.676 637.605 979.676Z" fill="#58A256"/>
<path d="M621.219 969.236L620.765 962.337L621.945 969.735L619.358 972.64L621.219 969.236Z" fill="#58A256"/>
</g>
<path id="Vector 5_9" d="M620.129 975.954L618.813 973.82L618.041 974.91L615.817 980.447L615 987.256L618.813 989.253H623.897L627.392 986.893L628.89 989.253H635.153L640.192 987.256L639.375 982.354L631.795 983.262L628.89 982.717L624.759 978.042L620.129 975.954Z" fill="#58A256"/>
</g>
</g>
<g id="thud-illustration-2">
<path id="Vector 42" d="M184.14 1002.94L322.747 1087.8L145 1040.14L184.14 1002.94Z" fill="#D9D1D0"/>
<g id="Vector 43">
<path d="M224.5 1210L358.5 1148L277 1230L224.5 1210Z" fill="#D9D1D0"/>
<path d="M616 1230L483 1148L557 1230H616Z" fill="#D9D1D0"/>
</g>
</g>
<g id="thud illustration">
<g id="Vector 40_2">
<path d="M1002.5 1031L886 1096L1048.5 1085.5L1002.5 1031Z" fill="#D9D1D0"/>
<path d="M530 1148L549.5 1089.5L629.25 1095.25L709 1101L530 1148Z" fill="#D9D1D0"/>
</g>
<path id="Vector 41_3" d="M789 1250L819 1155L874.5 1250H789Z" fill="#D9D1D0"/>
</g>
</g>
<defs>
<clipPath id="clip0_7:599">
<rect width="1464" height="1421" fill="white"/>
</clipPath>
</defs>
</svg>
