<svg width="1464" height="1421" viewBox="0 0 1464 1421" fill="none" xmlns="http://www.w3.org/2000/svg">
<g id="storyboard 1" clip-path="url(#clip0)">
<rect width="1464" height="1421" fill="white"/>
<g id="shoes">
<g id="back">
<path id="Vector 39" d="M591.305 -193.987L540.852 -114.009L574.192 -73.5308L714.785 -17.6312L840.013 7.93531L861.729 -10.2459L860.604 -14.8322L849.115 -27.7328L808.373 -58.4691L800.313 -66.3497L786.451 -85.6621L725.017 -150.12L699.317 -165.697L684.831 -185.922L680.435 -181.58L658.564 -149.907L654.362 -148.709L626.148 -142.489L611.654 -149.99L613.693 -179.83L607.819 -190.878L591.305 -193.987Z" fill="white"/>
<g id="Group 4">
<g id="Vector 11">
<path d="M504.002 -57.655L539.988 -115.193L618.858 -82.4909L625.551 -68.433L778.349 -27.3927L861.863 -10.512L861.987 30.2586L844.171 34.5753L762.522 26.5165L519.345 -44.8765L504.002 -57.655Z" fill="#C07568"/>
<path d="M573.249 -178.623L545.913 -122.364L589.339 -187.901L610.085 -191.358L591.232 -194.347L573.249 -178.623Z" fill="#C07568"/>
<path d="M614.24 -151.313L613.364 -180.848L608.762 -147.829L626.239 -140.153L655.495 -148.748L627.615 -144.84L614.24 -151.313Z" fill="#C07568"/>
<path d="M698.771 -170.413L684.288 -186.121L693.121 -166.343L720.011 -149.538L783.214 -85.1565L800.525 -66.0721L790.106 -86.952L724.903 -153.194L698.771 -170.413Z" fill="#C07568"/>
<path d="M849.687 -31.9081L807.938 -58.8038L844.623 -27.6666L860.551 -14.716L849.687 -31.9081Z" fill="#C07568"/>
</g>
</g>
</g>
<g id="front">
<path id="Vector 39_2" d="M450.205 73.1365L384.771 174.896L426.974 227.051L606.219 300.127L766.143 334.227L794.128 311.208L792.74 305.328L778.184 288.696L726.403 248.921L716.178 238.75L698.659 213.889L620.78 130.742L588.074 110.53L569.767 84.4937L564.094 89.9998L535.762 130.278L530.373 131.763L494.209 139.407L475.749 129.65L478.689 91.4972L471.298 77.298L450.205 73.1365Z" fill="white"/>
<g id="Group 4_2">
<g id="Vector 11_2">
<path d="M337 246.581L383.679 173.371L484.216 216.084L492.622 234.143L687.647 288.345L794.302 310.869L794.007 363.03L771.167 368.354L666.8 357.137L356.487 263.1L337 246.581Z" fill="#DE8879"/>
<path d="M426.935 92.5921L391.337 164.262L447.623 80.9003L474.202 76.7087L450.115 72.6752L426.935 92.5921Z" fill="#DE8879"/>
<path d="M479.073 127.986L478.28 90.1908L472.026 132.382L494.3 142.397L531.823 131.725L496.112 136.415L479.073 127.986Z" fill="#DE8879"/>
<path d="M587.428 104.49L569.075 84.2324L580.155 109.633L614.369 131.431L694.513 214.5L716.447 239.107L703.35 212.279L620.668 126.809L587.428 104.49Z" fill="#DE8879"/>
<path d="M778.962 283.361L725.85 248.488L772.436 288.731L792.671 305.476L778.962 283.361Z" fill="#DE8879"/>
</g>
<path id="Vector 12" d="M570.819 102.722L564.044 90.0557L535.494 130.388L570.819 102.722Z" fill="#DE8879"/>
</g>
</g>
</g>
</g>
<defs>
<clipPath id="clip0">
<rect width="1464" height="1421" fill="white"/>
</clipPath>
</defs>
</svg>
