<svg width="65" height="84" viewBox="0 0 65 84" fill="none" xmlns="http://www.w3.org/2000/svg">
<path d="M3.18446 3L20.9515 17.8058L6.14563 32.6117L3.18446 3Z" stroke="#DE8879" stroke-width="2"/>
<path d="M58.8544 32.6117L44.0485 17.8058L61.2233 3L58.8544 32.6117Z" stroke="#DE8879" stroke-width="2"/>
<path d="M32.2039 53.3398L19.767 56.301L22.7282 74.6602L32.2039 81.767L42.2718 74.6602L44.6408 56.301L32.2039 53.3398Z" stroke="#DE8879" stroke-width="2"/>
<path d="M32.2039 17.8058V76.4369M32.2039 76.4369L28.0583 78.8058L32.2039 81.767L36.3495 78.8058L32.2039 76.4369ZM4.96117 19.5825L7.3301 11.8835L15.6214 13.068L20.9515 17.8058L6.14563 32.6117L4.96117 19.5825ZM49.3786 13.068L57.0777 11.8835L60.0388 19.5825L58.8544 32.6117L44.0485 17.8058L49.3786 13.068Z" stroke="#DE8879" stroke-width="2"/>
<path d="M44.0485 17.8058H20.3592L6.14563 32.6116L2 49.7864L20.9515 64L19.767 56.301L32.7961 53.3398L44.6408 56.301L44.0485 64.5922L63 49.7864L59.4466 33.2039L44.0485 17.8058Z" stroke="#DE8879" stroke-width="2"/>
<path d="M44.6408 56.301L62.4078 49.7864" stroke="#DE8879" stroke-width="2"/>
<path d="M20.3592 56.301L2 49.7864" stroke="#DE8879" stroke-width="2"/>
</svg>
